<?xml version="1.0" encoding="UTF-8" standalone="no"?>
<!-- Created with Inkscape (http://www.inkscape.org/) -->

<svg
   xmlns:dc="http://purl.org/dc/elements/1.1/"
   xmlns:cc="http://creativecommons.org/ns#"
   xmlns:rdf="http://www.w3.org/1999/02/22-rdf-syntax-ns#"
   xmlns:svg="http://www.w3.org/2000/svg"
   xmlns="http://www.w3.org/2000/svg"
   xmlns:sodipodi="http://sodipodi.sourceforge.net/DTD/sodipodi-0.dtd"
   xmlns:inkscape="http://www.inkscape.org/namespaces/inkscape"
   version="1.1"
   id="svg3755"
   width="335.59344"
   height="362.03079"
   viewBox="0 0 335.59345 362.03079"
   sodipodi:docname="survive.svg"
   inkscape:version="0.92.4 (5da689c313, 2019-01-14)">
  <metadata
     id="metadata3761">
    <rdf:RDF>
      <cc:Work
         rdf:about="">
        <dc:format>image/svg+xml</dc:format>
        <dc:type
           rdf:resource="http://purl.org/dc/dcmitype/StillImage" />
        <dc:title />
      </cc:Work>
    </rdf:RDF>
  </metadata>
  <defs
     id="defs3759">
    <marker
       inkscape:isstock="true"
       style="overflow:visible"
       id="marker1154"
       refX="0"
       refY="0"
       orient="auto"
       inkscape:stockid="DotL">
      <path
         transform="matrix(0.8,0,0,0.8,5.92,0.8)"
         style="fill:#0000ff;fill-opacity:1;fill-rule:evenodd;stroke:#0000ff;stroke-width:1.00000003pt;stroke-opacity:1"
         d="m -2.5,-1 c 0,2.76 -2.24,5 -5,5 -2.76,0 -5,-2.24 -5,-5 0,-2.76 2.24,-5 5,-5 2.76,0 5,2.24 5,5 z"
         id="path1152"
         inkscape:connector-curvature="0" />
    </marker>
    <marker
       inkscape:stockid="DotL"
       orient="auto"
       refY="0"
       refX="0"
       id="DotL"
       style="overflow:visible"
       inkscape:isstock="true"
       inkscape:collect="always">
      <path
         id="path931"
         d="m -2.5,-1 c 0,2.76 -2.24,5 -5,5 -2.76,0 -5,-2.24 -5,-5 0,-2.76 2.24,-5 5,-5 2.76,0 5,2.24 5,5 z"
         style="fill:#0000ff;fill-opacity:1;fill-rule:evenodd;stroke:#0000ff;stroke-width:1.00000003pt;stroke-opacity:1"
         transform="matrix(0.8,0,0,0.8,5.92,0.8)"
         inkscape:connector-curvature="0" />
    </marker>
  </defs>
  <sodipodi:namedview
     pagecolor="#ffffff"
     bordercolor="#666666"
     borderopacity="1"
     objecttolerance="10"
     gridtolerance="10"
     guidetolerance="10"
     inkscape:pageopacity="0"
     inkscape:pageshadow="2"
     inkscape:window-width="1920"
     inkscape:window-height="1018"
     id="namedview3757"
     showgrid="false"
     inkscape:zoom="1"
     inkscape:cx="-144.21287"
     inkscape:cy="91.797313"
     inkscape:window-x="-8"
     inkscape:window-y="-8"
     inkscape:window-maximized="1"
     inkscape:current-layer="g1206"
     inkscape:snap-text-baseline="false" />
  <g
     id="g164"
     transform="translate(626.13281,0.93685016)">
    <path
       style="fill:#f4e4a2"
       d="m -580.49752,265.98326 c -1.07473,-1.16608 -1.14047,-1.68799 -0.25,-1.98481 0.89819,-0.2994 1.20815,-6.39155 1.20815,-23.74606 0,-21.39087 -0.14637,-23.38158 -1.75,-23.80065 -1.66667,-0.43556 -1.66667,-0.46286 0,-0.57333 1.61404,-0.10699 1.75,-1.95257 1.75,-23.75577 0,-21.3413 -0.17015,-23.76892 -1.75,-24.96818 -1.66667,-1.26519 -1.66667,-1.32996 0,-1.36025 1.61596,-0.0294 1.75,-1.82615 1.75,-23.45848 0,-21.47024 -0.14615,-23.46487 -1.75,-23.884 -1.66667,-0.43554 -1.66667,-0.46285 0,-0.57332 1.61404,-0.10699 1.75,-1.95257 1.75,-23.755762 0,-21.341316 -0.17015,-23.768919 -1.75,-24.968197 -1.62051,-1.230145 -1.58352,-1.330792 0.5,-1.360243 1.42187,-0.0201 2.25,0.56535 2.25,1.590642 0,1.215045 0.32534,1.352441 1.29563,0.547171 0.9115,-0.756484 4.24683,-0.780213 11.25,-0.08004 24.95931,2.495426 39.60467,4.164225 47.45437,5.407296 4.675,0.740328 11.65,1.652077 15.5,2.026108 5.86861,0.570141 17.36927,2.802775 44,8.541765 11.03856,2.378838 32.9088,5.895017 40,6.430986 4.4,0.332562 8.675,0.797776 9.5,1.033809 0.825,0.236033 12.3,1.343752 25.5,2.461598 13.2,1.117847 26.25,2.248323 29,2.512171 9.6646,0.927265 16.10674,1.511035 27.5,2.491976 16.92923,1.45759 29.54195,3.10359 31.08387,4.05655 2.94325,1.81903 -0.47851,2.18102 -9.81064,1.03786 -5.37528,-0.65845 -15.17323,-1.60882 -21.77323,-2.11193 -18.30618,-1.39546 -24.33091,-1.94416 -32.5,-2.95994 -4.125,-0.51292 -18.79741,-1.864237 -32.60535,-3.00292 -13.80794,-1.138683 -28.65794,-2.683008 -33,-3.431834 -4.34206,-0.748826 -11.94465,-1.888048 -16.89465,-2.531606 -4.95,-0.643557 -12.6,-2.009625 -17,-3.035706 -24.52436,-5.719088 -29.04684,-6.549033 -49,-8.992256 -9.35,-1.144889 -17.675,-2.281706 -18.5,-2.526261 -2.32435,-0.689007 -27.07708,-3.477983 -30.95821,-3.488167 l -3.45821,-0.0091 4.45821,4.550615 c 2.45202,2.502839 6.70821,5.953772 9.45821,7.668741 2.75,1.714969 8.15,6.316232 12,10.225029 10.81765,10.982845 44.89252,31.538075 69.53033,41.943265 6.45148,2.72463 15.49704,5.55715 22.96967,7.1927 6.03595,1.3211 10.24772,2.07444 33,5.90249 4.675,0.78657 16.15,2.82559 25.5,4.53116 27.42382,5.00249 33.96375,5.90326 54,7.43764 31.83969,2.43828 35.54889,2.81844 36.09323,3.69921 0.71963,1.16438 -15.72561,1.06833 -28.54716,-0.16673 -5.80034,-0.55873 -14.82107,-1.42397 -20.04607,-1.92275 -5.225,-0.49878 -10.4,-1.10984 -11.5,-1.35789 -1.1,-0.24808 -4.7,-0.75598 -8,-1.12867 -6.10534,-0.68954 -10.64761,-1.47059 -39,-6.70612 -40.76501,-7.52765 -48.77771,-9.2654 -59.96917,-13.00576 -11.27594,-3.76859 -30.44159,-12.71441 -33.35226,-15.5676 -0.72678,-0.71243 -1.76363,-1.29533 -2.30411,-1.29533 -0.54047,0 -5.57083,-2.85975 -11.17857,-6.35499 -5.60774,-3.49525 -12.44589,-7.64936 -15.19589,-9.23135 -2.75,-1.582 -8.90411,-6.75514 -13.67579,-11.495855 -4.77169,-4.740723 -10.24682,-9.364993 -12.16695,-10.276156 -1.92013,-0.911164 -6.11603,-4.175514 -9.32421,-7.254113 -5.21432,-5.003715 -11.87744,-9.176484 -12.9463,-8.107614 -0.2184,0.218396 1.80071,2.908635 4.48691,5.978309 4.63654,5.298429 12.12634,16.597573 12.12634,18.293839 0,0.434747 0.61341,1.500882 1.36314,2.369189 0.74973,0.868301 2.17722,3.828741 3.1722,6.578741 0.99498,2.75 2.12724,5.45 2.51614,6 0.38889,0.54999 1.44232,3.56459 2.34094,6.6991 0.89862,3.1345 2.02878,5.94318 2.51147,6.24149 0.48268,0.29832 2.10098,2.88205 3.59621,5.74162 7.09497,13.56889 17.11968,23.45472 39.75679,39.20604 12.2068,8.49372 27.36142,13.79924 49.24311,17.23965 59.68984,9.3849 90.05574,12.8533 121.71565,13.90239 23.23731,0.77 32.78435,1.51533 32.78435,2.55947 0,0.50063 -3.91663,0.91023 -8.70361,0.91023 -13.49031,0 -50.89303,-1.85863 -59.79639,-2.97142 -4.4,-0.54992 -12.725,-1.46073 -18.5,-2.02399 -28.8996,-2.8187 -69.74626,-9.23667 -89.37251,-14.04253 -15.58919,-3.81729 -37.10298,-16.78692 -53.00097,-31.9517 -11.81545,-11.27052 -17.79444,-20.62533 -24.61331,-38.51035 -3.85285,-10.10552 -12.47698,-25.86059 -18.00906,-32.900029 -2.88918,-3.676417 -5.40037,-6.537082 -5.58042,-6.357033 -0.18005,0.180049 0.28117,3.461545 1.02492,7.292212 0.74376,3.830668 2.32488,12.36485 3.5136,18.96485 2.41517,13.40944 4.49251,24.4676 6.614,35.20784 0.78306,3.96431 1.42375,8.35792 1.42375,9.76357 0,1.40564 0.41638,3.33712 0.92528,4.29216 0.50891,0.95504 1.65395,5.11142 2.54455,9.23642 3.30006,15.28502 6.91877,26.72817 11.06816,35 10.45733,20.84669 31.19864,37.24286 53.28253,42.12025 10.17834,2.24797 55.30329,5.29554 124.17948,8.38664 32.84576,1.47408 73.28995,3.36494 73.75,3.44798 0.1375,0.0248 0.25,0.55705 0.25,1.18273 0,1.21793 -21.01032,0.78263 -57,-1.18097 -10.175,-0.55515 -28.4,-1.46254 -40.5,-2.01644 -72.34764,-3.3118 -104.17638,-6.28218 -112.20844,-10.47177 -1.53536,-0.80084 -3.40604,-1.45886 -4.15708,-1.46225 -1.16117,-0.005 -14.65539,-8.33297 -16.13448,-9.95712 -0.275,-0.30198 -3.10609,-2.73722 -6.29131,-5.41167 -8.65184,-7.26443 -19.74089,-25.00753 -23.52255,-37.63738 -2.34159,-7.82037 -7.0009,-27.0143 -8.73898,-36 -0.6915,-3.575 -2.00157,-10.325 -2.91126,-15 -2.01693,-10.36512 -2.92175,-15.30207 -9.07088,-49.492813 -0.88953,-4.946053 -1.80806,-9.183553 -2.04118,-9.416667 -0.23311,-0.233114 -0.42384,42.62615 -0.42384,95.24281 v 95.66667 h 144 144 v 2.2 c 0,1.71111 -0.26667,1.93333 -1.2,1 -1.67406,-1.67406 -17.43229,-1.6308 -18.21667,0.05 -0.46666,1 -0.7,1 -1.16666,0 -0.78438,-1.6808 -16.54261,-1.72406 -18.21667,-0.05 -0.93333,0.93333 -1.2,0.93333 -1.2,0 0,-1.72379 -17.64139,-1.67569 -18.33772,0.05 -0.40351,1 -0.52017,1 -0.58333,0 -0.0569,-0.90064 -2.57106,-1.25 -8.99562,-1.25 -6.19766,0 -9.07047,0.38117 -9.42105,1.25 -0.40351,1 -0.52017,1 -0.58333,0 -0.0569,-0.90064 -2.57106,-1.25 -8.99562,-1.25 -6.19766,0 -9.07047,0.38117 -9.42105,1.25 -0.40351,1 -0.52017,1 -0.58333,0 -0.0569,-0.90064 -2.57106,-1.25 -8.99562,-1.25 -6.19766,0 -9.07047,0.38117 -9.42105,1.25 -0.40351,1 -0.52017,1 -0.58333,0 -0.0569,-0.90064 -2.57106,-1.25 -8.99562,-1.25 -6.15555,0 -9.0973,0.38707 -9.5,1.25 -0.46666,1 -0.7,1 -1.16666,0 -0.4021,-0.86164 -3.32778,-1.25 -9.41667,-1.25 -6.13099,0 -8.98764,0.38241 -9.33772,1.25 -0.40351,1 -0.52017,1 -0.58333,0 -0.0569,-0.90064 -2.57106,-1.25 -8.99562,-1.25 -6.19766,0 -9.07047,0.38117 -9.42105,1.25 -0.40351,1 -0.52017,1 -0.58333,0 -0.0569,-0.90064 -2.57106,-1.25 -8.99562,-1.25 -6.15555,0 -9.0973,0.38707 -9.5,1.25 -0.46666,1 -0.7,1 -1.16666,0 -0.39823,-0.85332 -3.22778,-1.25 -8.91667,-1.25 -5.68889,0 -8.51844,0.39668 -8.91667,1.25 -0.46666,1 -0.7,1 -1.16666,0 -0.4021,-0.86164 -3.32778,-1.25 -9.41667,-1.25 -6.13099,0 -8.98764,0.38241 -9.33772,1.25 -0.40351,1 -0.52017,1 -0.58333,0 -0.0569,-0.90064 -2.57106,-1.25 -8.99562,-1.25 -6.19766,0 -9.07047,0.38117 -9.42105,1.25 -0.40351,1 -0.52017,1 -0.58333,0 -0.0569,-0.90064 -2.57105,-1.25 -8.99562,-1.25 -6.19766,0 -9.07047,0.38117 -9.42105,1.25 -0.40351,1 -0.52017,1 -0.58333,0 -0.0937,-1.48305 -17.70174,-1.8194 -18.24562,-0.34852 -0.18333,0.49581 -0.9895,0.18953 -1.79148,-0.68062 z"
       id="path192"
       inkscape:connector-curvature="0"
       sodipodi:nodetypes="ccsccsccsccsscscsssssssssscssssssssccssssscsscssccsscsccssscsssscscsssssscscsssscsssccssscsssccccsscccscccssccssccsccsccsccsccsccsccsccsccsccsccsccccc" />
    <path
       style="fill:#addded"
       d="m -580.49752,265.98326 c -1.07473,-1.16608 -1.14047,-1.68799 -0.25,-1.98481 0.89819,-0.2994 1.20815,-6.39155 1.20815,-23.74606 0,-21.39087 -0.14637,-23.38158 -1.75,-23.80065 -1.66667,-0.43556 -1.66667,-0.46286 0,-0.57333 1.61404,-0.10699 1.75,-1.95257 1.75,-23.75577 0,-21.3413 -0.17015,-23.76892 -1.75,-24.96818 -1.66667,-1.26519 -1.66667,-1.32996 0,-1.36025 1.61596,-0.0294 1.75,-1.82615 1.75,-23.45848 0,-21.47024 -0.14615,-23.46487 -1.75,-23.884 -1.66667,-0.43554 -1.66667,-0.46285 0,-0.57332 1.61483,-0.10704 1.75,-1.96972 1.75,-24.116005 0,-15.333333 -0.36111,-24 -1,-24 -0.55,0 -1,-0.45 -1,-1 0,-0.55 0.675,-1 1.5,-1 0.88435,0 1.50629,0.923472 1.51531,2.25 0.0102,1.495627 0.28129,1.831132 0.8086,1.000681 0.62289,-0.980974 3.68041,-1.031268 14.23469,-0.23415 7.39277,0.558344 16.3664,1.454656 19.9414,1.991806 6.30976,0.948053 10.85501,1.529013 35,4.473595 6.325,0.771361 18.25,2.788787 26.5,4.48317 8.25,1.694383 21.75,4.431355 30,6.08216 15.55992,3.113502 18.05573,3.741522 17.39313,4.376633 -0.55801,0.534857 -18.92123,-2.716987 -35.39313,-6.267578 -7.7,-1.65977 -16.25,-3.492719 -19,-4.073219 -6.74033,-1.422825 -66.95067,-9.083098 -71.39386,-9.083098 h -3.53096 l 4.81954,4.893113 c 2.65075,2.691212 7.63941,6.542234 11.08591,8.557827 3.49337,2.042995 8.70675,6.404893 11.78106,9.856887 3.48028,3.907833 8.78388,8.209468 14.3765,11.660468 4.874,3.00756 12.76499,8.02622 17.53555,11.15257 9.35107,6.12818 33.82861,18.08291 45.57359,22.25796 9.23182,3.28169 16.73504,5.00954 35.0422,8.06957 8.09076,1.35237 22.36047,3.85353 31.71047,5.55815 32.88009,5.99444 55.31088,8.77119 85.75,10.61516 5.9125,0.35819 10.75,1.03982 10.75,1.51476 0,2.94369 -55.27581,-1.92846 -85.5,-7.53619 -8.55265,-1.58684 -9.18035,-1.70031 -26,-4.69986 -6.05,-1.07893 -13.025,-2.37119 -15.5,-2.87169 -2.475,-0.50049 -9.675,-1.87241 -16,-3.0487 -23.81241,-4.4285 -44.88602,-13.48793 -73.82642,-31.73756 -5.88074,-3.70835 -11.99934,-7.41746 -13.59689,-8.24246 -1.59755,-0.82501 -6.32862,-4.95847 -10.5135,-9.185473 -4.18488,-4.227007 -10.97359,-9.883721 -15.08603,-12.570474 -4.11244,-2.686753 -8.65516,-6.428293 -10.09494,-8.314532 -1.61269,-2.112755 -4.42139,-4.092343 -7.31527,-5.155832 l -4.69748,-1.726306 3.31527,3.989753 c 7.42095,8.930743 10.43552,13.086989 12.80831,17.659061 1.37118,2.642089 2.9971,5.478798 3.61314,6.303798 0.61605,0.825005 1.93417,3.750005 2.92915,6.500005 0.99498,2.75 2.12724,5.45 2.51614,6 0.38889,0.54999 1.44232,3.56459 2.34094,6.6991 0.89862,3.1345 2.04774,5.9549 2.5536,6.26754 0.50586,0.31263 2.18745,3.10734 3.73686,6.21045 3.07514,6.15876 4.34097,7.88227 11.81712,16.08977 8.77928,9.6381 30.16714,25.37173 41.25689,30.34997 7.73746,3.47338 22.6782,7.45282 35.74311,9.52012 58.00035,9.17754 90.15096,12.8474 121.71565,13.89334 23.23731,0.77 32.78435,1.51533 32.78435,2.55947 0,0.50063 -3.91663,0.91023 -8.70361,0.91023 -13.49031,0 -50.89303,-1.85863 -59.79639,-2.97142 -4.4,-0.54992 -12.725,-1.46164 -18.5,-2.02604 -13.59974,-1.32909 -42.99747,-5.20617 -53,-6.98983 -37.80711,-6.74183 -41.94728,-7.81544 -54.35477,-14.09509 -20.89137,-10.57349 -42.46267,-29.21638 -50.23759,-43.41762 -5.92689,-10.8257 -7.18236,-13.39932 -7.80521,-15.99999 -1.53232,-6.39818 -13.9299,-29.880128 -19.32745,-36.60767 -3.0606,-3.814754 -5.70285,-6.797793 -5.87167,-6.628976 -0.16882,0.168818 0.30159,3.441124 1.04534,7.271791 0.74376,3.830668 2.32488,12.36485 3.5136,18.964855 2.41517,13.40944 4.49251,24.4676 6.614,35.20784 0.78306,3.96431 1.42375,8.35792 1.42375,9.76357 0,1.40564 0.41638,3.33712 0.92528,4.29216 0.50891,0.95504 1.65395,5.11142 2.54455,9.23642 3.30006,15.28502 6.91877,26.72817 11.06816,35 10.45733,20.84669 31.19864,37.24286 53.28253,42.12025 10.17834,2.24797 55.30329,5.29554 124.17948,8.38664 32.84576,1.47408 73.28995,3.36494 73.75,3.44798 0.1375,0.0248 0.25,0.55705 0.25,1.18273 0,1.21793 -21.01032,0.78263 -57,-1.18097 -10.175,-0.55515 -28.4,-1.46254 -40.5,-2.01644 -72.34764,-3.3118 -104.17638,-6.28218 -112.20844,-10.47177 -1.53536,-0.80084 -3.40604,-1.45886 -4.15708,-1.46225 -1.16117,-0.005 -14.65539,-8.33297 -16.13448,-9.95712 -0.275,-0.30198 -3.10609,-2.73722 -6.29131,-5.41167 -8.65184,-7.26443 -19.74089,-25.00753 -23.52255,-37.63738 -2.34159,-7.82037 -7.0009,-27.0143 -8.73898,-36 -0.6915,-3.575 -2.00157,-10.325 -2.91126,-15 -2.01693,-10.36512 -2.92175,-15.30207 -9.07088,-49.492818 -0.88953,-4.946053 -1.80806,-9.183553 -2.04118,-9.416667 -0.23311,-0.233114 -0.42384,42.626155 -0.42384,95.242815 v 95.66667 h 144 144 v 2.2 c 0,1.71111 -0.26667,1.93333 -1.2,1 -1.67406,-1.67406 -17.43229,-1.6308 -18.21667,0.05 -0.46666,1 -0.7,1 -1.16666,0 -0.78438,-1.6808 -16.54261,-1.72406 -18.21667,-0.05 -0.93333,0.93333 -1.2,0.93333 -1.2,0 0,-1.72379 -17.64139,-1.67569 -18.33772,0.05 -0.40351,1 -0.52017,1 -0.58333,0 -0.0569,-0.90064 -2.57106,-1.25 -8.99562,-1.25 -6.19766,0 -9.07047,0.38117 -9.42105,1.25 -0.40351,1 -0.52017,1 -0.58333,0 -0.0569,-0.90064 -2.57106,-1.25 -8.99562,-1.25 -6.19766,0 -9.07047,0.38117 -9.42105,1.25 -0.40351,1 -0.52017,1 -0.58333,0 -0.0569,-0.90064 -2.57106,-1.25 -8.99562,-1.25 -6.19766,0 -9.07047,0.38117 -9.42105,1.25 -0.40351,1 -0.52017,1 -0.58333,0 -0.0569,-0.90064 -2.57106,-1.25 -8.99562,-1.25 -6.15555,0 -9.0973,0.38707 -9.5,1.25 -0.46666,1 -0.7,1 -1.16666,0 -0.4021,-0.86164 -3.32778,-1.25 -9.41667,-1.25 -6.13099,0 -8.98764,0.38241 -9.33772,1.25 -0.40351,1 -0.52017,1 -0.58333,0 -0.0569,-0.90064 -2.57106,-1.25 -8.99562,-1.25 -6.19766,0 -9.07047,0.38117 -9.42105,1.25 -0.40351,1 -0.52017,1 -0.58333,0 -0.0569,-0.90064 -2.57106,-1.25 -8.99562,-1.25 -6.15555,0 -9.0973,0.38707 -9.5,1.25 -0.46666,1 -0.7,1 -1.16666,0 -0.39823,-0.85332 -3.22778,-1.25 -8.91667,-1.25 -5.68889,0 -8.51844,0.39668 -8.91667,1.25 -0.46666,1 -0.7,1 -1.16666,0 -0.4021,-0.86164 -3.32778,-1.25 -9.41667,-1.25 -6.13099,0 -8.98764,0.38241 -9.33772,1.25 -0.40351,1 -0.52017,1 -0.58333,0 -0.0569,-0.90064 -2.57106,-1.25 -8.99562,-1.25 -6.19766,0 -9.07047,0.38117 -9.42105,1.25 -0.40351,1 -0.52017,1 -0.58333,0 -0.0569,-0.90064 -2.57105,-1.25 -8.99562,-1.25 -6.19766,0 -9.07047,0.38117 -9.42105,1.25 -0.40351,1 -0.52017,1 -0.58333,0 -0.0937,-1.48305 -17.70174,-1.8194 -18.24562,-0.34852 -0.18333,0.49581 -0.9895,0.18953 -1.79148,-0.68062 z M -312.03941,104.6422 c -2.75,-0.46913 -11.075,-1.29968 -18.5,-1.84566 -7.425,-0.54598 -18,-1.43882 -23.5,-1.98409 -5.5,-0.54527 -13.375,-1.259067 -17.5,-1.586218 -7.4473,-0.59064 -39.00449,-3.746656 -50.5,-5.050475 -3.3,-0.374286 -6.675,-1.079658 -7.5,-1.567493 -0.98373,-0.581694 -0.29537,-0.711113 2,-0.376021 1.925,0.281025 10.925,1.189599 20,2.019055 9.075,0.829456 21,1.963663 26.5,2.52046 5.5,0.556796 15.625,1.45621 22.5,1.998697 34.81489,2.747145 59.74643,5.405045 60.82591,6.484525 0.76114,0.76115 -8.62585,0.35963 -14.32591,-0.61278 z"
       id="path190"
       inkscape:connector-curvature="0"
       sodipodi:nodetypes="ccsccsccsccssssccssssscssscscsscssscssscsscsscsccscscsccssssssccssccsccsssccssscsssccccsscccscccssccssccsccsccsccsccsccsccsccsccsccsccscccccssssssssscc" />
    <path
       style="fill:#dea29f"
       d="m -580.49752,265.98326 c -1.07473,-1.16608 -1.14047,-1.68799 -0.25,-1.98481 1.77186,-0.59062 1.73116,-46.85834 -0.0418,-47.57377 -1,-0.40351 -1,-0.52017 0,-0.58333 1.81325,-0.11452 1.81325,-47.64944 0,-48.49562 -1,-0.46666 -1,-0.7 0,-1.16666 1.80777,-0.84363 1.80777,-47.02493 0,-47.75438 -1,-0.40351 -1,-0.52018 0,-0.58334 1.59482,-0.10072 1.8443,-48.078945 0.25,-48.078945 -0.55,0 -1,-0.45 -1,-1 0,-0.55 0.675,-1 1.5,-1 1.32313,0 1.5,11.555179 1.5,97.996605 v 97.99661 l 143.73632,0.25339 c 142.89261,0.2519 143.73777,0.26513 143.98237,2.25339 0.13532,1.1 -0.009,1.4375 -0.31966,0.75 -0.76395,-1.68808 -17.51732,-1.7317 -19.19903,-0.05 -0.93333,0.93333 -1.2,0.93333 -1.2,0 0,-1.72379 -17.64139,-1.67569 -18.33772,0.05 -0.40351,1 -0.52017,1 -0.58333,0 -0.0569,-0.90064 -2.57106,-1.25 -8.99562,-1.25 -6.19766,0 -9.07047,0.38117 -9.42105,1.25 -0.40351,1 -0.52017,1 -0.58333,0 -0.0569,-0.90064 -2.57106,-1.25 -8.99562,-1.25 -6.19766,0 -9.07047,0.38117 -9.42105,1.25 -0.40351,1 -0.52017,1 -0.58333,0 -0.0569,-0.90064 -2.57106,-1.25 -8.99562,-1.25 -6.19766,0 -9.07047,0.38117 -9.42105,1.25 -0.40351,1 -0.52017,1 -0.58333,0 -0.0569,-0.90064 -2.57106,-1.25 -8.99562,-1.25 -6.19766,0 -9.07047,0.38117 -9.42105,1.25 -0.40351,1 -0.52017,1 -0.58333,0 -0.0569,-0.90064 -2.57106,-1.25 -8.99562,-1.25 -6.19766,0 -9.07047,0.38117 -9.42105,1.25 -0.40351,1 -0.52017,1 -0.58333,0 -0.0572,-0.90591 -2.67106,-1.25 -9.49562,-1.25 -6.59766,0 -9.56766,0.37421 -9.92105,1.25 -0.40351,1 -0.52017,1 -0.58333,0 -0.0569,-0.90064 -2.57106,-1.25 -8.99562,-1.25 -6.19766,0 -9.07047,0.38117 -9.42105,1.25 -0.40351,1 -0.52017,1 -0.58333,0 -0.0569,-0.90064 -2.57106,-1.25 -8.99562,-1.25 -6.19766,0 -9.07047,0.38117 -9.42105,1.25 -0.40351,1 -0.52017,1 -0.58333,0 -0.10752,-1.70229 -17.18144,-1.7475 -18.87895,-0.05 -0.93333,0.93333 -1.2,0.93333 -1.2,0 0,-1.72379 -17.64139,-1.67569 -18.33772,0.05 -0.40351,1 -0.52017,1 -0.58333,0 -0.0569,-0.90064 -2.57106,-1.25 -8.99562,-1.25 -6.19766,0 -9.07047,0.38117 -9.42105,1.25 -0.40351,1 -0.52017,1 -0.58333,0 -0.0569,-0.90064 -2.57105,-1.25 -8.99562,-1.25 -6.19766,0 -9.07047,0.38117 -9.42105,1.25 -0.40351,1 -0.52017,1 -0.58333,0 -0.0937,-1.48305 -17.70174,-1.8194 -18.24562,-0.34852 -0.18333,0.49581 -0.9895,0.18953 -1.79148,-0.68062 z m 263.45815,-14.78944 c -0.55,-0.22587 -17.425,-1.09221 -37.5,-1.92518 -20.075,-0.83298 -38.075,-1.70058 -40,-1.92801 -1.925,-0.22742 -11.6,-0.68606 -21.5,-1.01921 -26.26832,-0.88392 -65.76703,-3.98406 -77,-6.04347 -14.98562,-2.74743 -26.94137,-9.11101 -39.36209,-20.95094 -11.43574,-10.90103 -20.40331,-26.32579 -24.1646,-41.56461 -0.47514,-1.925 -1.59343,-6.425 -2.4851,-10 -3.02978,-12.14736 -6.05019,-26.55057 -9.01729,-42.99999 -0.74405,-4.125 -2.08,-11.32501 -2.96878,-16 -0.88877,-4.675 -2.30789,-12.325005 -3.15359,-17.000005 -0.84569,-4.675 -1.91826,-10.525 -2.38348,-13 -1.77635,-9.450372 -2.00416,-9.166105 6.78493,-8.466556 12.95343,1.031002 25.14507,2.31316 37.75,3.970052 6.6,0.867557 17.175,2.208171 23.5,2.979142 6.325,0.770972 18.25,2.788081 26.5,4.482464 8.25,1.694383 21.75,4.431355 30,6.08216 15.55992,3.113502 18.05573,3.741522 17.39313,4.376633 -0.55801,0.534857 -18.92123,-2.716987 -35.39313,-6.267578 -7.7,-1.65977 -16.25,-3.492719 -19,-4.073219 -6.74033,-1.422825 -66.95067,-9.083098 -71.39386,-9.083098 h -3.53096 l 4.81954,4.893113 c 2.65075,2.691212 7.63941,6.542234 11.08591,8.557827 3.49337,2.042995 8.70675,6.404893 11.78106,9.856887 3.48028,3.907833 8.78388,8.209468 14.3765,11.660468 4.874,3.00756 12.76499,8.02622 17.53555,11.15257 9.35107,6.12818 33.82861,18.08291 45.57359,22.25796 9.23182,3.28169 16.73504,5.00954 35.0422,8.06957 8.09076,1.35237 22.36047,3.85353 31.71047,5.55815 32.88009,5.99444 55.31088,8.77119 85.75,10.61516 5.9125,0.35819 10.75,1.03982 10.75,1.51476 0,2.94369 -55.27581,-1.92846 -85.5,-7.53619 -8.55265,-1.58684 -9.18035,-1.70031 -26,-4.69986 -6.05,-1.07893 -13.025,-2.37119 -15.5,-2.87169 -2.475,-0.50049 -9.675,-1.87241 -16,-3.0487 -23.81241,-4.4285 -44.88602,-13.48793 -73.82642,-31.73756 -5.88074,-3.70835 -11.99934,-7.41746 -13.59689,-8.24246 -1.59755,-0.82501 -6.32862,-4.95847 -10.5135,-9.185473 -4.18488,-4.227007 -10.97359,-9.883721 -15.08603,-12.570474 -4.11244,-2.686753 -8.65516,-6.428293 -10.09494,-8.314532 -1.60901,-2.107937 -4.42064,-4.092044 -7.29619,-5.148762 l -4.67841,-1.719237 1.93826,2.719237 c 1.06605,1.49558 2.93921,3.619236 4.16259,4.719236 5.37047,4.828857 14.381,20.959085 19.32672,34.597785 1.87521,5.17122 5.04077,12.10222 7.03457,15.40221 1.9938,3.3 3.62626,6.5337 3.62767,7.18599 10e-4,0.65228 4.39007,5.64597 9.75257,11.09707 8.88284,9.0296 22.48383,19.93257 32.75,26.25338 8.48457,5.2239 24.12816,10.35627 39.5,12.95922 27.73517,4.69646 58.25536,9.02545 77.5,10.99261 25.22478,2.57846 31.09522,3.01461 47.5,3.52912 24.14948,0.7574 34,1.50267 34,2.57239 0,2.55239 -69.47181,-1.32696 -100.25,-5.59801 -24.40714,-3.38695 -31.39898,-4.37527 -34.25,-4.84132 -1.65,-0.26973 -5.025,-0.78691 -7.5,-1.1493 -12.23387,-1.79129 -35.08894,-6.75632 -41.86218,-9.09413 -21.82465,-7.53285 -49.55158,-29.61763 -60.7739,-48.40702 -2.79223,-4.675 -6.77253,-12.94223 -8.84511,-18.37162 -5.18798,-13.59062 -11.81554,-25.859118 -18.31724,-33.90764 -3.012,-3.728596 -5.59753,-6.653596 -5.74561,-6.5 -0.30476,0.316111 1.62614,12.110474 4.05671,24.77927 0.89692,4.67499 2.24339,12.09999 2.99215,16.5 0.74876,4.4 2.07568,11.59999 2.94872,15.99999 0.87304,4.4 2.02114,10.77595 2.55133,14.16878 0.5302,3.39282 1.38177,7.21782 1.89238,8.49999 0.51062,1.28218 1.91095,6.83123 3.11185,12.33123 1.20089,5.5 2.55877,10.9 3.0175,12 0.45873,1.1 1.35299,3.69564 1.98725,5.76808 1.42457,4.65482 6.99557,15.43894 10.8706,21.04287 4.10653,5.93872 15.87395,17.01531 20.68245,19.46825 2.23679,1.14104 4.61697,2.73742 5.28929,3.54751 2.90308,3.49801 19.05961,8.32672 32.64381,9.75627 10.32027,1.08607 47.28769,3.3924 78,4.86628 11.55,0.55428 29.1,1.45842 39,2.00919 9.9,0.55078 26.325,1.24547 36.5,1.54376 23.54218,0.69016 33,1.43048 33,2.58311 0,0.87794 -19.44289,1.19093 -21.5,0.3461 z m 5,-146.55167 c -2.75,-0.46913 -11.075,-1.29968 -18.5,-1.84566 -7.425,-0.54598 -18,-1.43882 -23.5,-1.98409 -5.5,-0.54527 -13.375,-1.259067 -17.5,-1.586218 -7.4473,-0.59064 -39.00449,-3.746656 -50.5,-5.050475 -3.3,-0.374286 -6.675,-1.079658 -7.5,-1.567493 -0.98373,-0.581694 -0.29537,-0.711113 2,-0.376021 1.925,0.281025 10.925,1.189599 20,2.019055 9.075,0.829456 21,1.963663 26.5,2.52046 5.5,0.556796 15.625,1.45621 22.5,1.998697 34.81489,2.747145 59.74643,5.405045 60.82591,6.484525 0.76114,0.76115 -8.62585,0.35963 -14.32591,-0.61278 z"
       id="path188"
       inkscape:connector-curvature="0"
       sodipodi:nodetypes="ccccccccsssscscccsccsccsccsccsccsccsscsccscccsccsccsccccccscccccsccccssssscssscscsscssscssscsscsscsccssccssssssscssssccssscccscsccsscssccssssssssscc" />
    <path
       style="fill:#a7d0a6"
       d="m -580.49752,265.98326 c -1.07473,-1.16608 -1.14047,-1.68799 -0.25,-1.98481 1.77186,-0.59062 1.73116,-46.85834 -0.0418,-47.57377 -1,-0.40351 -1,-0.52017 0,-0.58333 1.81325,-0.11452 1.81325,-47.64944 0,-48.49562 -1,-0.46666 -1,-0.7 0,-1.16666 1.80777,-0.84363 1.80777,-47.02493 0,-47.75438 -1,-0.40351 -1,-0.52018 0,-0.58334 1.59482,-0.10072 1.8443,-48.078945 0.25,-48.078945 -0.55,0 -1,-0.45 -1,-1 0,-0.55 0.675,-1 1.5,-1 1.32313,0 1.5,11.555179 1.5,97.996605 v 97.99661 l 143.73632,0.25339 c 142.89261,0.2519 143.73777,0.26513 143.98237,2.25339 0.13532,1.1 -0.009,1.4375 -0.31966,0.75 -0.76395,-1.68808 -17.51732,-1.7317 -19.19903,-0.05 -0.93333,0.93333 -1.2,0.93333 -1.2,0 0,-1.72379 -17.64139,-1.67569 -18.33772,0.05 -0.40351,1 -0.52017,1 -0.58333,0 -0.0569,-0.90064 -2.57106,-1.25 -8.99562,-1.25 -6.19766,0 -9.07047,0.38117 -9.42105,1.25 -0.40351,1 -0.52017,1 -0.58333,0 -0.0569,-0.90064 -2.57106,-1.25 -8.99562,-1.25 -6.19766,0 -9.07047,0.38117 -9.42105,1.25 -0.40351,1 -0.52017,1 -0.58333,0 -0.0569,-0.90064 -2.57106,-1.25 -8.99562,-1.25 -6.19766,0 -9.07047,0.38117 -9.42105,1.25 -0.40351,1 -0.52017,1 -0.58333,0 -0.0569,-0.90064 -2.57106,-1.25 -8.99562,-1.25 -6.19766,0 -9.07047,0.38117 -9.42105,1.25 -0.40351,1 -0.52017,1 -0.58333,0 -0.0569,-0.90064 -2.57106,-1.25 -8.99562,-1.25 -6.19766,0 -9.07047,0.38117 -9.42105,1.25 -0.40351,1 -0.52017,1 -0.58333,0 -0.0572,-0.90591 -2.67106,-1.25 -9.49562,-1.25 -6.59766,0 -9.56766,0.37421 -9.92105,1.25 -0.40351,1 -0.52017,1 -0.58333,0 -0.0569,-0.90064 -2.57106,-1.25 -8.99562,-1.25 -6.19766,0 -9.07047,0.38117 -9.42105,1.25 -0.40351,1 -0.52017,1 -0.58333,0 -0.0569,-0.90064 -2.57106,-1.25 -8.99562,-1.25 -6.19766,0 -9.07047,0.38117 -9.42105,1.25 -0.40351,1 -0.52017,1 -0.58333,0 -0.10752,-1.70229 -17.18144,-1.7475 -18.87895,-0.05 -0.93333,0.93333 -1.2,0.93333 -1.2,0 0,-1.72379 -17.64139,-1.67569 -18.33772,0.05 -0.40351,1 -0.52017,1 -0.58333,0 -0.0569,-0.90064 -2.57106,-1.25 -8.99562,-1.25 -6.19766,0 -9.07047,0.38117 -9.42105,1.25 -0.40351,1 -0.52017,1 -0.58333,0 -0.0569,-0.90064 -2.57105,-1.25 -8.99562,-1.25 -6.19766,0 -9.07047,0.38117 -9.42105,1.25 -0.40351,1 -0.52017,1 -0.58333,0 -0.0937,-1.48305 -17.70174,-1.8194 -18.24562,-0.34852 -0.18333,0.49581 -0.9895,0.18953 -1.79148,-0.68062 z m 263.45815,-14.78944 c -0.55,-0.22587 -17.425,-1.09221 -37.5,-1.92518 -20.075,-0.83298 -38.075,-1.70058 -40,-1.92801 -1.925,-0.22742 -11.6,-0.68606 -21.5,-1.01921 -26.26832,-0.88392 -65.76703,-3.98406 -77,-6.04347 -14.98562,-2.74743 -26.94137,-9.11101 -39.36209,-20.95094 -11.43574,-10.90103 -20.40331,-26.32579 -24.1646,-41.56461 -0.47514,-1.925 -1.59343,-6.425 -2.4851,-10 -3.02978,-12.14736 -6.05019,-26.55057 -9.01729,-42.99999 -0.74405,-4.125 -2.08,-11.32501 -2.96878,-16 -0.88877,-4.675 -2.30789,-12.325005 -3.15359,-17.000005 -0.84569,-4.675 -1.91826,-10.525 -2.38348,-13 -1.77635,-9.450372 -2.00416,-9.166105 6.78493,-8.466556 12.95343,1.031002 25.14507,2.31316 37.75,3.970052 6.6,0.867557 17.175,2.208171 23.5,2.979142 6.325,0.770972 18.25,2.788081 26.5,4.482464 8.25,1.694383 21.75,4.431355 30,6.08216 15.55992,3.113502 18.05573,3.741522 17.39313,4.376633 -0.55801,0.534857 -18.92123,-2.716987 -35.39313,-6.267578 -7.7,-1.65977 -16.25,-3.492719 -19,-4.073219 -6.62853,-1.399226 -66.91518,-9.083098 -71.26478,-9.083098 -1.87104,0 -3.25189,0.359652 -3.06855,0.799227 0.75872,1.819175 12.94295,11.951111 18.27979,15.200773 3.18077,1.936811 6.94466,5.286502 8.42738,7.5 2.66069,3.972035 5.73659,6.193035 29.70948,21.452215 19.4762,12.39695 44.78265,23.81731 61.4154,27.7157 8.02291,1.88042 6.27621,1.55466 34.81589,6.49306 13.02697,2.25414 27.06039,4.72253 31.18539,5.48532 14.30213,2.64477 25.55474,4.29057 36.5,5.33845 27.12404,2.59681 32.36166,3.0223 38,3.08698 3.3,0.0379 6.9,0.47782 8,0.97769 2.48724,1.13025 -24.27642,0.12594 -30,-1.12575 -2.2,-0.48113 -6.475,-0.89383 -9.5,-0.91713 -5.55568,-0.0428 -34.17011,-3.88243 -48,-6.4409 -4.125,-0.76311 -11.55,-2.12175 -16.5,-3.01916 -17.72587,-3.21368 -24.08863,-4.37125 -30,-5.45784 -3.3,-0.60659 -8.7,-1.59522 -12,-2.19695 -18.80649,-3.42928 -42.68189,-14.2756 -72,-32.70878 -15.0526,-9.46403 -20.26909,-13.50656 -24.25932,-18.79986 -1.73666,-2.303793 -5.76377,-5.67415 -8.94913,-7.489682 -3.18535,-1.815533 -8.11095,-5.611811 -10.94578,-8.436175 -4.64566,-4.628524 -6.78428,-5.955789 -12.65872,-7.856223 -1.69119,-0.547116 -1.68165,-0.402306 0.14208,2.156265 1.07526,1.508524 2.95596,3.64277 4.17934,4.74277 5.37047,4.828857 14.381,20.959085 19.32672,34.597785 1.87521,5.17122 5.04077,12.10222 7.03457,15.40221 1.9938,3.3 3.62626,6.5337 3.62767,7.18599 10e-4,0.65228 4.39007,5.64597 9.75257,11.09707 8.88284,9.0296 22.48383,19.93257 32.75,26.25338 8.48457,5.2239 24.12816,10.35627 39.5,12.95922 27.73517,4.69646 58.25536,9.02545 77.5,10.99261 25.22478,2.57846 31.09522,3.01461 47.5,3.52912 24.14948,0.7574 34,1.50267 34,2.57239 0,2.55239 -69.47181,-1.32696 -100.25,-5.59801 -24.40714,-3.38695 -31.39898,-4.37527 -34.25,-4.84132 -1.65,-0.26973 -5.025,-0.78691 -7.5,-1.1493 -12.23387,-1.79129 -35.08894,-6.75632 -41.86218,-9.09413 -21.82465,-7.53285 -49.55158,-29.61763 -60.7739,-48.40702 -2.79223,-4.675 -6.77253,-12.94223 -8.84511,-18.37162 -5.18798,-13.59062 -11.81554,-25.859118 -18.31724,-33.90764 -3.012,-3.728596 -5.59753,-6.653596 -5.74561,-6.5 -0.30476,0.316111 1.62614,12.110474 4.05671,24.77927 0.89692,4.67499 2.24339,12.09999 2.99215,16.5 0.74876,4.4 2.07568,11.59999 2.94872,15.99999 0.87304,4.4 2.02114,10.77595 2.55133,14.16878 0.5302,3.39282 1.38177,7.21782 1.89238,8.49999 0.51062,1.28218 1.91095,6.83123 3.11185,12.33123 1.20089,5.5 2.55877,10.9 3.0175,12 0.45873,1.1 1.35299,3.69564 1.98725,5.76808 1.42457,4.65482 6.99557,15.43894 10.8706,21.04287 4.10653,5.93872 15.87395,17.01531 20.68245,19.46825 2.23679,1.14104 4.61697,2.73742 5.28929,3.54751 2.90308,3.49801 19.05961,8.32672 32.64381,9.75627 10.32027,1.08607 47.28769,3.3924 78,4.86628 11.55,0.55428 29.1,1.45842 39,2.00919 9.9,0.55078 26.325,1.24547 36.5,1.54376 23.54218,0.69016 33,1.43048 33,2.58311 0,0.87794 -19.44289,1.19093 -21.5,0.3461 z m 5,-146.55167 c -2.75,-0.46913 -11.075,-1.29968 -18.5,-1.84566 -7.425,-0.54598 -18,-1.43882 -23.5,-1.98409 -5.5,-0.54527 -13.375,-1.259067 -17.5,-1.586218 -7.4473,-0.59064 -39.00449,-3.746656 -50.5,-5.050475 -3.3,-0.374286 -6.675,-1.079658 -7.5,-1.567493 -0.98373,-0.581694 -0.29537,-0.711113 2,-0.376021 1.925,0.281025 10.925,1.189599 20,2.019055 9.075,0.829456 21,1.963663 26.5,2.52046 5.5,0.556796 15.625,1.45621 22.5,1.998697 34.81489,2.747145 59.74643,5.405045 60.82591,6.484525 0.76114,0.76115 -8.62585,0.35963 -14.32591,-0.61278 z"
       id="path186"
       inkscape:connector-curvature="0"
       sodipodi:nodetypes="ccccccccsssscscccsccsccsccsccsccsccsscsccscccsccsccsccccccscccccsccccssssscssscscssscsccccscccssccscssccssssssscssssccssscccscsccsscssccssssssssscc" />
    <path
       style="fill:#a5aaaa"
       d="m -580.49752,265.98326 c -1.07473,-1.16608 -1.14047,-1.68799 -0.25,-1.98481 1.77186,-0.59062 1.73116,-46.85834 -0.0418,-47.57377 -1,-0.40351 -1,-0.52017 0,-0.58333 1.81325,-0.11452 1.81325,-47.64944 0,-48.49562 -1,-0.46666 -1,-0.7 0,-1.16666 1.80777,-0.84363 1.80777,-47.02493 0,-47.75438 -1,-0.40351 -1,-0.52018 0,-0.58334 1.81469,-0.11461 1.81469,-48.684424 0,-49.416664 -0.74674,-0.301317 -0.54544,-0.536171 0.5,-0.583334 1.6553,-0.07467 1.75,5.22415 1.75,97.917658 v 97.99661 l 143.73632,0.25339 c 142.86574,0.25186 143.73825,0.2655 144.05376,2.25339 0.2089,1.31622 0.0306,1.58578 -0.52157,0.78846 -0.60563,-0.87453 -5.96528,-1.21154 -19.26851,-1.21154 -13.34124,0 -18.64208,0.3345 -19.19944,1.21154 -0.59558,0.93718 -0.7734,0.92847 -0.78525,-0.0385 -0.0111,-0.9054 -2.47348,-1.25 -8.93198,-1.25 -6.19766,0 -9.07047,0.38117 -9.42105,1.25 -0.40351,1 -0.52017,1 -0.58333,0 -0.0569,-0.90064 -2.57106,-1.25 -8.99562,-1.25 -6.19766,0 -9.07047,0.38117 -9.42105,1.25 -0.40351,1 -0.52017,1 -0.58333,0 -0.0569,-0.90064 -2.57106,-1.25 -8.99562,-1.25 -6.19766,0 -9.07047,0.38117 -9.42105,1.25 -0.40351,1 -0.52017,1 -0.58333,0 -0.0569,-0.90064 -2.57106,-1.25 -8.99562,-1.25 -6.19766,0 -9.07047,0.38117 -9.42105,1.25 -0.40351,1 -0.52017,1 -0.58333,0 -0.0569,-0.90064 -2.57106,-1.25 -8.99562,-1.25 -6.19766,0 -9.07047,0.38117 -9.42105,1.25 -0.40351,1 -0.52017,1 -0.58333,0 -0.0572,-0.90592 -2.67106,-1.25 -9.49562,-1.25 -6.59766,0 -9.56766,0.37421 -9.92105,1.25 -0.40351,1 -0.52017,1 -0.58333,0 -0.0569,-0.90064 -2.57106,-1.25 -8.99562,-1.25 -6.19766,0 -9.07047,0.38117 -9.42105,1.25 -0.40351,1 -0.52017,1 -0.58333,0 -0.0569,-0.90064 -2.57106,-1.25 -8.99562,-1.25 -6.19766,0 -9.07047,0.38117 -9.42105,1.25 -0.38868,0.96324 -0.5225,0.96842 -0.58333,0.0226 -0.11342,-1.76337 -37.71119,-1.75979 -38.4254,0.004 -0.38367,0.94731 -0.51349,0.94138 -0.5746,-0.0262 -0.0569,-0.90064 -2.57106,-1.25 -8.99562,-1.25 -6.19766,0 -9.07047,0.38117 -9.42105,1.25 -0.40351,1 -0.52017,1 -0.58333,0 -0.0569,-0.90064 -2.57105,-1.25 -8.99561,-1.25 -6.19766,0 -9.07048,0.38117 -9.42106,1.25 -0.40351,1 -0.52017,1 -0.58333,0 -0.0937,-1.48305 -17.70174,-1.8194 -18.24561,-0.34852 -0.18334,0.49581 -0.9895,0.18953 -1.79149,-0.68062 z m 263.45815,-14.79072 c -0.55,-0.22658 -17.425,-1.12111 -37.5,-1.98783 -67.95465,-2.93391 -75.47587,-3.29769 -91,-4.40139 -40.64224,-2.88951 -50.14453,-4.17693 -61.08612,-8.27628 -11.68755,-4.37883 -27.91734,-17.15374 -35.21368,-27.71764 -9.09329,-13.16562 -12.39363,-21.27715 -17.71791,-43.547 -4.45161,-18.61973 -4.70225,-19.7807 -7.0163,-32.5 -1.15073,-6.325 -2.69742,-14.65 -3.43711,-18.49999 -0.73968,-3.85 -2.08795,-11.27501 -2.99615,-16.500005 -0.90819,-5.225 -2.04301,-11.075 -2.52182,-13 -0.4788,-1.925 -1.18194,-6.111233 -1.56254,-9.302739 l -0.69199,-5.802739 7.87181,0.627884 c 13.109,1.045621 25.24641,2.321507 37.87181,3.98109 6.6,0.867557 17.175,2.208171 23.5,2.979142 6.325,0.770972 18.25,2.788081 26.5,4.482464 8.25,1.694383 21.75,4.431355 30,6.08216 15.55992,3.113502 18.05573,3.741522 17.39313,4.376633 -0.55801,0.534857 -18.92123,-2.716987 -35.39313,-6.267578 -7.7,-1.65977 -16.25,-3.492719 -19,-4.073219 -6.62853,-1.399226 -66.91518,-9.083098 -71.26478,-9.083098 -1.87104,0 -3.25189,0.359652 -3.06855,0.799227 0.75872,1.819175 12.94295,11.951111 18.27979,15.200773 3.18077,1.936811 6.94466,5.286502 8.42738,7.5 2.66069,3.972035 5.73659,6.193035 29.70948,21.452215 19.4762,12.39695 44.78265,23.81731 61.4154,27.7157 8.02291,1.88042 6.27621,1.55466 34.81589,6.49306 13.02697,2.25414 27.06039,4.72253 31.18539,5.48532 14.30213,2.64477 25.55474,4.29057 36.5,5.33845 27.12404,2.59681 32.36166,3.0223 38,3.08698 3.3,0.0379 6.9,0.47782 8,0.97769 2.48724,1.13025 -24.27642,0.12594 -30,-1.12575 -2.2,-0.48113 -6.475,-0.89383 -9.5,-0.91713 -5.55568,-0.0428 -34.17011,-3.88243 -48,-6.4409 -4.125,-0.76311 -11.55,-2.12175 -16.5,-3.01916 -17.72587,-3.21368 -24.08863,-4.37125 -30,-5.45784 -3.3,-0.60659 -8.7,-1.59522 -12,-2.19695 -18.80649,-3.42927 -42.68189,-14.2756 -72,-32.70878 -15.0526,-9.46403 -20.26909,-13.50656 -24.25932,-18.79986 -1.73666,-2.303793 -5.76377,-5.67415 -8.94913,-7.489682 -3.18535,-1.815533 -8.17284,-5.673704 -11.08332,-8.573714 -3.14833,-3.137023 -6.9963,-5.851488 -9.5,-6.701565 -2.31452,-0.785851 -4.35295,-1.289181 -4.52984,-1.118512 -0.35311,0.340711 1.46468,2.700817 6.8694,8.918798 4.48145,5.155789 7.62741,10.161591 12.93477,20.581635 1.73299,3.4024 2.3356,4.88723 7.10238,17.5 1.24717,3.3 3.44528,7.8 4.88467,10 1.4394,2.2 3.11754,5.125 3.7292,6.5 4.8754,10.95981 33.99005,34.98966 51.82528,42.77412 11.63065,5.07637 26.73073,8.37974 60.47591,13.23002 4.125,0.59289 12,1.73669 17.5,2.54178 5.5,0.80508 13.825,1.91585 18.5,2.46837 4.675,0.55251 9.85,1.21377 11.5,1.46945 2.5508,0.39526 20.76703,1.77616 39,2.95643 2.75,0.17802 13.4375,0.67289 23.75,1.09972 10.67735,0.44192 18.75,1.18645 18.75,1.72927 0,1.02945 -15.96394,0.62168 -47,-1.20055 -24.73714,-1.4524 -56.01784,-4.93138 -85.5,-9.50917 -29.39349,-4.56402 -30.28226,-4.73356 -46.75019,-8.91803 -7.1938,-1.82792 -21.8743,-9.23353 -31.70075,-15.99148 -4.11856,-2.83246 -12.0514,-9.53374 -17.62854,-14.89172 -11.59609,-11.14044 -18.7474,-21.76467 -23.54378,-34.97746 -1.6533,-4.55441 -4.39322,-10.98076 -6.0887,-14.28075 -1.69549,-3.3 -4.00048,-7.800005 -5.1222,-10.000005 -2.32304,-4.556102 -9.37932,-14.06372 -12.55132,-16.911615 l -2.12917,-1.911614 0.57493,3.411614 c 0.3162,1.876388 1.1917,6.786615 1.94554,10.911615 0.75384,4.125 2.32098,12.900005 3.48253,19.500005 2.40689,13.67601 4.6019,25.05592 6.03044,31.26435 0.53967,2.34539 0.98121,5.36716 0.98121,6.71505 0,1.34788 0.6179,4.37892 1.3731,6.73565 0.7552,2.35672 2.37353,8.78494 3.59627,14.28494 1.22275,5.5 2.5985,10.9 3.05723,12 0.45873,1.1 1.37927,3.8 2.04565,6 4.32801,14.28862 20.1665,34.50041 31.6099,40.33799 2.30018,1.17339 4.49529,2.6401 4.87802,3.25936 1.02551,1.65932 10.77205,5.75864 17.80572,7.48896 10.49819,2.5826 36.72028,4.65565 93.13411,7.36295 11.55,0.55428 29.1,1.46226 39,2.01773 9.9,0.55547 26.325,1.25249 36.5,1.54893 23.59626,0.68746 33,1.41964 33,2.5694 0,0.87872 -19.44695,1.19061 -21.5,0.34482 z m 5,-146.55039 c -2.75,-0.46913 -11.075,-1.29968 -18.5,-1.84566 -7.425,-0.54598 -18,-1.43882 -23.5,-1.98409 -5.5,-0.54527 -13.375,-1.259067 -17.5,-1.586218 -7.4473,-0.59064 -39.00449,-3.746656 -50.5,-5.050475 -3.3,-0.374286 -6.675,-1.079658 -7.5,-1.567493 -0.98373,-0.581694 -0.29537,-0.711113 2,-0.376021 1.925,0.281025 10.925,1.189599 20,2.019055 9.075,0.829456 21,1.963663 26.5,2.52046 5.5,0.556796 15.625,1.45621 22.5,1.998697 34.81489,2.747145 59.74643,5.405045 60.82591,6.484525 0.76114,0.76115 -8.62585,0.35963 -14.32591,-0.61278 z"
       id="path184"
       inkscape:connector-curvature="0"
       sodipodi:nodetypes="ccccccccccscsccsscsccsccsccsccsccsscsccsccccsccsccccccssscsccccccssssscssscscssscsccccscccssccccscccssccccccssscscscccccsccsccssccsssssccssssssssscc" />
    <path
       style="fill:#e5c053"
       d="m -579.53937,241.84574 c 0,-18.99766 -0.29694,-25.03648 -1.25,-25.42105 -1,-0.40351 -1,-0.52017 0,-0.58333 0.98173,-0.062 1.25,-10.48772 1.25,-48.57895 0,-38.12516 -0.26739,-48.50327 -1.25,-48.51531 -0.98457,-0.0121 -0.98844,-0.18146 -0.0182,-0.79774 0.90747,-0.57644 1.30729,-7.2201 1.51863,-25.234691 0.15778,-13.448739 0.39099,20.210241 0.51824,74.797741 0.12725,54.5875 0.006,99.25 -0.26863,99.25 -0.275,0 -0.5,-11.2125 -0.5,-24.91667 z m 234,7.88479 c -85.38444,-3.7857 -143.78204,-7.71073 -147.95572,-9.94442 -1.05204,-0.56304 -2.95488,-1.03839 -4.22854,-1.05635 -3.24871,-0.0458 -12.39587,-3.3251 -17.06624,-6.11834 -6.39732,-3.82608 -20.03983,-15.26987 -23.8151,-19.97689 -5.99552,-7.47522 -12.85087,-19.61075 -15.52123,-27.47612 -3.98055,-11.72443 -10.19188,-40.56561 -17.85276,-82.89599 -1.99076,-11.000005 -4.05625,-21.886774 -4.58998,-24.192825 -1.96732,-8.499979 -1.99183,-8.471877 6.77957,-7.773736 12.95343,1.031002 25.14507,2.31316 37.75,3.970052 6.6,0.867557 17.175,2.208171 23.5,2.979142 6.325,0.770972 18.25,2.788081 26.5,4.482464 8.25,1.694383 21.75,4.431355 30,6.08216 15.55992,3.113502 18.05573,3.741522 17.39313,4.376633 -0.55801,0.534857 -18.92123,-2.716987 -35.39313,-6.267578 -7.7,-1.65977 -16.25,-3.492719 -19,-4.073219 -6.62853,-1.399226 -66.91518,-9.083098 -71.26478,-9.083098 -1.87104,0 -3.25189,0.359652 -3.06855,0.799227 0.75872,1.819175 12.94295,11.951111 18.27979,15.200773 3.18077,1.936811 6.94466,5.286502 8.42738,7.5 2.66069,3.972035 5.73659,6.193035 29.70948,21.452215 19.12373,12.1726 44.36298,23.62777 60.89641,27.63866 3.31115,0.80326 17.94527,3.52971 32.52027,6.05877 14.575,2.52907 29.875,5.22499 34,5.99093 14.1713,2.63138 25.51895,4.29286 36.5,5.34417 27.12404,2.59681 32.36166,3.0223 38,3.08698 3.3,0.0379 6.9,0.47782 8,0.97769 2.48724,1.13025 -24.27642,0.12594 -30,-1.12575 -2.2,-0.48113 -6.475,-0.89383 -9.5,-0.91713 -5.55568,-0.0428 -34.17011,-3.88243 -48,-6.4409 -4.125,-0.76311 -11.55,-2.12175 -16.5,-3.01916 -17.72587,-3.21368 -24.08863,-4.37125 -30,-5.45784 -3.3,-0.60659 -8.7,-1.59522 -12,-2.19695 -18.80649,-3.42927 -42.68189,-14.2756 -72,-32.70878 -15.0526,-9.46403 -20.26909,-13.50656 -24.25932,-18.79986 -1.73666,-2.303793 -5.76377,-5.67415 -8.94913,-7.489682 -3.18535,-1.815533 -8.17284,-5.673704 -11.08332,-8.573714 -4.5815,-4.565041 -12.75442,-9.056723 -14.10052,-7.749388 -0.21577,0.209548 1.80923,2.906966 4.5,5.994262 5.54644,6.363823 7.78194,9.596543 12.05699,17.435477 4.86733,8.924975 5.06302,9.322755 6.64132,13.500005 6.2055,16.42399 7.50516,19.08729 14.54646,29.80921 3.83064,5.83298 15.64907,17.14991 25.64752,24.55918 12.37611,9.17123 15.92343,11.36733 24.30003,15.04384 11.48521,5.04089 18.68879,6.61846 59.69997,13.07412 8.61335,1.35585 32.47284,4.66441 43,5.96274 18.08757,2.23078 60.47628,4.9816 77.45,5.02612 6.96604,0.0183 9.15607,0.31872 8.33178,1.14301 -0.76954,0.76954 -5.27524,0.94725 -14.45,0.56993 -18.32807,-0.75377 -47.81739,-2.48054 -54.1215,-3.16912 -32.98463,-3.60284 -46.07217,-5.24935 -62.71028,-7.88943 -5.225,-0.82909 -13.775,-2.18759 -19,-3.01888 -9.31094,-1.48138 -16.97204,-3.09894 -28.03753,-5.91986 -3.04565,-0.77643 -9.79008,-3.54386 -14.98763,-6.14986 -27.74693,-13.912 -49.57264,-36.35583 -58.11405,-59.75983 -1.66207,-4.55419 -4.03418,-10.30553 -5.27134,-12.78076 -7.45177,-14.90892 -9.38157,-18.124529 -14.40355,-24.000415 -3.05547,-3.575 -5.85425,-6.859497 -6.21953,-7.298883 -0.67227,-0.80867 -0.45432,0.633727 2.53835,16.798883 2.89163,15.619355 4.54928,24.839535 5.39355,30.000005 0.85017,5.19659 2.89561,15.59164 6.09987,30.99999 5.78168,27.80236 10.46726,41.26928 18.47195,53.09058 4.62121,6.82459 13.80908,16.18836 19.05837,19.42323 3.1114,1.91741 6.20605,3.99654 6.877,4.62031 2.99437,2.78377 14.95494,7.56251 22.09454,8.82769 11.62954,2.06081 16.99317,2.65081 32.5,3.57499 42.26104,2.51869 70.21271,4.01434 93.58192,5.00743 13.79506,0.58623 35.62006,1.65275 48.5,2.37004 l 23.41808,1.30417 -17,-0.0315 c -9.35,-0.0174 -23.975,-0.3408 -32.5,-0.71878 z m 33.5,-145.08832 c -2.75,-0.46913 -11.075,-1.29968 -18.5,-1.84566 -7.425,-0.54598 -18,-1.43882 -23.5,-1.98409 -5.5,-0.54527 -13.375,-1.259067 -17.5,-1.586218 -7.4473,-0.59064 -39.00449,-3.746656 -50.5,-5.050475 -3.3,-0.374286 -6.675,-1.079658 -7.5,-1.567493 -0.98373,-0.581694 -0.29537,-0.711113 2,-0.376021 1.925,0.281025 10.925,1.189599 20,2.019055 9.075,0.829456 21,1.963663 26.5,2.52046 5.5,0.556796 15.625,1.45621 22.5,1.998697 34.81489,2.747145 59.74643,5.405045 60.82591,6.484525 0.76114,0.76115 -8.62585,0.35963 -14.32591,-0.61278 z"
       id="path182"
       inkscape:connector-curvature="0"
       sodipodi:nodetypes="cscsccssscccccccsscssssscssscscssscsccccscccssccccssssssscsssscccscscscsscccssscccccssssssssscc" />
    <path
       style="fill:#60a1c9"
       d="m -579.53937,241.84573 c 0,-18.99766 -0.29694,-25.03648 -1.25,-25.42105 -1,-0.40351 -1,-0.52017 0,-0.58333 0.98173,-0.062 1.25,-10.48772 1.25,-48.57895 0,-38.12516 -0.26739,-48.50327 -1.25,-48.51531 -0.98457,-0.0121 -0.98844,-0.18146 -0.0182,-0.79774 0.90747,-0.57644 1.30729,-7.2201 1.51863,-25.234691 0.15778,-13.448739 0.39099,20.210241 0.51824,74.797741 0.12725,54.5875 0.006,99.25 -0.26863,99.25 -0.275,0 -0.5,-11.2125 -0.5,-24.91667 z m 234,7.88479 c -85.38444,-3.7857 -143.78204,-7.71073 -147.95572,-9.94442 -1.05204,-0.56304 -2.95488,-1.03839 -4.22854,-1.05635 -3.24871,-0.0458 -12.39587,-3.3251 -17.06624,-6.11834 -6.39732,-3.82608 -20.03983,-15.26987 -23.8151,-19.97689 -5.99552,-7.47522 -12.85087,-19.61075 -15.52123,-27.47612 -3.98055,-11.72443 -10.19188,-40.56561 -17.85276,-82.89599 -1.99076,-11.000005 -4.05625,-21.886774 -4.58998,-24.192825 -1.37133,-5.924944 -1.23418,-6.861704 1.02957,-7.032227 1.1,-0.08286 2.00202,0.383878 2.0045,1.037196 0.002,0.653318 2.3895,3.887851 5.30451,7.187851 5.21473,5.903438 6.97266,8.488986 11.95199,17.578803 4.08157,7.450962 4.46404,8.236862 6.04502,12.421202 6.2055,16.42399 7.50516,19.08729 14.54646,29.80921 3.83064,5.83298 15.64907,17.1499 25.64752,24.55917 12.37611,9.17124 15.92343,11.36734 24.30003,15.04385 11.48521,5.04089 18.68879,6.61846 59.69997,13.07412 8.61335,1.35585 32.47284,4.66441 43,5.96274 18.08757,2.23078 60.47628,4.9816 77.45,5.02611 6.96604,0.0183 9.15607,0.31873 8.33178,1.14301 -0.76954,0.76955 -5.27524,0.94725 -14.45,0.56993 -18.32807,-0.75377 -47.81739,-2.48053 -54.1215,-3.16911 -32.98463,-3.60284 -46.07217,-5.24935 -62.71028,-7.88944 -5.225,-0.82909 -13.775,-2.18759 -19,-3.01887 -9.31094,-1.48138 -16.97204,-3.09894 -28.03753,-5.91986 -3.04565,-0.77644 -9.79008,-3.54386 -14.98763,-6.14987 -27.74693,-13.91199 -49.57264,-36.35582 -58.11405,-59.75982 -1.66207,-4.55419 -4.03418,-10.30553 -5.27134,-12.78076 -7.45177,-14.90892 -9.38157,-18.124529 -14.40355,-24.000415 -3.05547,-3.575 -5.85425,-6.859497 -6.21953,-7.298883 -0.67227,-0.80867 -0.45432,0.633727 2.53835,16.798883 2.89163,15.619355 4.54928,24.839535 5.39355,30.000005 0.85017,5.19659 2.89561,15.59164 6.09987,30.99999 5.78168,27.80236 10.46726,41.26928 18.47195,53.09058 4.62121,6.82459 13.80908,16.18836 19.05837,19.42323 3.1114,1.91741 6.20605,3.99654 6.877,4.62031 2.99437,2.78377 14.95494,7.56251 22.09454,8.82769 11.62954,2.06081 16.99317,2.65081 32.5,3.57499 42.26104,2.51869 70.21271,4.01434 93.58192,5.00743 13.79506,0.58623 35.62006,1.65275 48.5,2.37004 l 23.41808,1.30417 -17,-0.0315 c -9.35,-0.0174 -23.975,-0.3408 -32.5,-0.71878 z m 29.5,-83.0059 c -26.71295,-2.03872 -48.05274,-4.65821 -68.5,-8.40848 -4.125,-0.75657 -11.55,-2.10985 -16.5,-3.00727 -17.72587,-3.21368 -24.08863,-4.37125 -30,-5.45783 -3.3,-0.60659 -8.7,-1.59522 -12,-2.19696 -18.80649,-3.42927 -42.68189,-14.27559 -72,-32.70877 -15.0526,-9.46403 -20.26909,-13.50656 -24.25932,-18.79986 -1.73666,-2.303793 -5.73925,-5.665802 -8.89464,-7.471131 -3.15538,-1.805329 -8.01158,-5.547615 -10.79155,-8.31619 -2.77997,-2.768575 -6.85449,-5.810069 -9.05449,-6.758876 -3.55035,-1.531178 -3.70602,-1.731384 -1.38486,-1.780975 2.80721,-0.05998 5.48005,1.704371 13.45456,8.881412 2.78833,2.509493 7.66958,6.137715 10.84721,8.062715 3.22762,1.955286 6.96006,5.265387 8.45693,7.5 2.66069,3.972035 5.73659,6.193035 29.70948,21.452215 19.12373,12.1726 44.36298,23.62777 60.89641,27.63866 3.31115,0.80326 17.94527,3.52971 32.52027,6.05877 14.575,2.52907 29.875,5.22499 34,5.99093 14.1713,2.63138 25.51895,4.29286 36.5,5.34417 27.12404,2.59681 32.36166,3.0223 38,3.08698 3.3,0.0379 6.9,0.45558 8,0.92827 2.37033,1.01857 -5.3603,1.00321 -19,-0.0378 z"
       id="path180"
       inkscape:connector-curvature="0"
       sodipodi:nodetypes="cscsccssscccccccsscscsssscsssccssscccscscscsscccssscccccsccssscsscsssssscscccc" />
    <path
       style="fill:#5b995c"
       d="m -579.53937,241.84573 c 0,-18.99766 -0.29694,-25.03648 -1.25,-25.42105 -1,-0.40351 -1,-0.52017 0,-0.58333 0.98173,-0.062 1.25,-10.48772 1.25,-48.57895 0,-38.12516 -0.26739,-48.50327 -1.25,-48.51531 -0.98457,-0.0121 -0.98844,-0.18146 -0.0182,-0.79774 0.90747,-0.57644 1.30729,-7.2201 1.51863,-25.234691 0.15778,-13.448739 0.39099,20.210241 0.51824,74.797741 0.12725,54.5875 0.006,99.25 -0.26863,99.25 -0.275,0 -0.5,-11.2125 -0.5,-24.91667 z m 234.5,7.88624 c -24.43461,-1.04221 -60.09374,-2.84083 -79,-3.98471 -52.82249,-3.19587 -66.47876,-4.36794 -69.45572,-5.96116 -1.05204,-0.56304 -2.95488,-1.03117 -4.22854,-1.0403 -2.7467,-0.0197 -12.91841,-3.7727 -17.70084,-6.53101 -5.6133,-3.23753 -19.4404,-14.91709 -23.1805,-19.58027 -6.47847,-8.07736 -13.16233,-20.34959 -15.99705,-29.37212 -2.47016,-7.86221 -7.60427,-29.02294 -9.34103,-38.5 -0.75595,-4.125 -2.54804,-13.8 -3.98244,-21.49999 -1.43439,-7.70001 -3.31582,-17.82501 -4.18096,-22.5 -0.86513,-4.675005 -2.17111,-11.650005 -2.90217,-15.500005 -2.7543,-14.504892 -2.73748,-14.058819 -0.53607,-14.224646 1.10293,-0.08308 2.00734,0.383477 2.00982,1.036795 0.002,0.653318 2.3895,3.887851 5.30451,7.187851 5.21473,5.903438 6.97266,8.488986 11.95199,17.578803 4.08157,7.450962 4.46404,8.236862 6.04502,12.421202 6.2055,16.42399 7.50516,19.08729 14.54646,29.80921 3.83064,5.83298 15.64907,17.1499 25.64752,24.55917 12.37611,9.17124 15.92343,11.36734 24.30003,15.04385 11.48521,5.04089 18.68879,6.61846 59.69997,13.07412 8.61335,1.35585 32.47284,4.66441 43,5.96274 18.08757,2.23078 60.47628,4.9816 77.45,5.02611 6.96604,0.0183 9.15607,0.31873 8.33178,1.14301 -0.76954,0.76955 -5.27524,0.94725 -14.45,0.56993 -18.32807,-0.75377 -47.81739,-2.48053 -54.1215,-3.16911 -32.98463,-3.60284 -46.07217,-5.24935 -62.71028,-7.88944 -5.225,-0.82909 -13.775,-2.18759 -19,-3.01887 -9.31094,-1.48138 -16.97204,-3.09894 -28.03753,-5.91986 -3.04565,-0.77644 -9.79008,-3.54386 -14.98763,-6.14987 -27.74693,-13.91199 -49.57264,-36.35582 -58.11405,-59.75982 -1.66207,-4.55419 -4.03418,-10.30553 -5.27134,-12.78076 -7.45177,-14.90892 -9.38157,-18.124529 -14.40355,-24.000415 -3.05547,-3.575 -5.85425,-6.859497 -6.21953,-7.298883 -0.36527,-0.439386 -0.32468,1.135614 0.0902,3.5 1.48608,8.468938 3.85736,21.444849 5.4456,29.798888 0.88879,4.67499 1.97556,10.75 2.41504,13.5 3.63289,22.73217 11.19562,55.13339 15.40089,65.9825 7.88832,20.35091 16.03826,29.81135 38.55852,44.7587 2.54147,1.68685 13.03173,5.24023 18.12337,6.13895 1.375,0.2427 3.175,0.69372 4,1.00228 1.73463,0.64877 22.56317,2.569 35,3.22676 4.675,0.24725 16.15,0.89007 25.5,1.42849 9.35,0.53842 26.225,1.40951 37.5,1.93575 11.275,0.52626 30.175,1.44263 42,2.0364 11.825,0.59376 28.925,1.44223 38,1.88549 l 16.5,0.80592 -16.5,-0.0246 c -9.075,-0.0135 -23.7,-0.33171 -32.5,-0.70707 z m 29,-83.00735 c -26.71295,-2.03872 -48.05274,-4.65821 -68.5,-8.40848 -4.125,-0.75657 -11.55,-2.10985 -16.5,-3.00727 -17.72587,-3.21368 -24.08863,-4.37125 -30,-5.45783 -3.3,-0.60659 -8.7,-1.59522 -12,-2.19696 -18.80649,-3.42927 -42.68189,-14.27559 -72,-32.70877 -15.0526,-9.46403 -20.26909,-13.50656 -24.25932,-18.79986 -1.73666,-2.303793 -5.73925,-5.665802 -8.89464,-7.471131 -3.15538,-1.805329 -8.01158,-5.547615 -10.79155,-8.31619 -2.77997,-2.768575 -6.85449,-5.810069 -9.05449,-6.758876 -3.55035,-1.531178 -3.70602,-1.731384 -1.38486,-1.780975 2.80721,-0.05998 5.48005,1.704371 13.45456,8.881412 2.78833,2.509493 7.66958,6.137715 10.84721,8.062715 3.22762,1.955286 6.96006,5.265387 8.45693,7.5 2.66069,3.972035 5.73659,6.193035 29.70948,21.452215 19.12373,12.1726 44.36298,23.62777 60.89641,27.63866 3.31115,0.80326 17.94527,3.52971 32.52027,6.05877 14.575,2.52907 29.875,5.22499 34,5.99093 14.1713,2.63138 25.51895,4.29286 36.5,5.34417 27.12404,2.59681 32.36166,3.0223 38,3.08698 3.3,0.0379 6.9,0.45558 8,0.92827 2.37033,1.01857 -5.3603,1.00321 -19,-0.0378 z"
       id="path178"
       inkscape:connector-curvature="0"
       sodipodi:nodetypes="cscsccssscccsccccsccccscsssscsssccssscccscsccscssscsscsscccccsccssscsscsssssscscccc" />
    <path
       style="fill:#ba422f"
       d="m -579.53937,241.84573 c 0,-18.99766 -0.29694,-25.03648 -1.25,-25.42105 -1,-0.40351 -1,-0.52017 0,-0.58333 0.98173,-0.062 1.25,-10.48772 1.25,-48.57895 0,-38.12516 -0.26739,-48.50327 -1.25,-48.51531 -0.98457,-0.0121 -0.98844,-0.18146 -0.0182,-0.79774 0.90747,-0.57644 1.30729,-7.2201 1.51863,-25.234691 0.15778,-13.448739 0.39099,20.210241 0.51824,74.797741 0.12725,54.5875 0.006,99.25 -0.26863,99.25 -0.275,0 -0.5,-11.2125 -0.5,-24.91667 z m 234.5,7.88624 c -24.43461,-1.04221 -60.09374,-2.84083 -79,-3.98471 -52.82249,-3.19587 -66.47876,-4.36794 -69.45572,-5.96116 -1.05204,-0.56304 -2.95488,-1.03117 -4.22854,-1.0403 -2.7467,-0.0197 -12.91841,-3.7727 -17.70084,-6.53101 -5.6133,-3.23753 -19.4404,-14.91709 -23.1805,-19.58027 -6.47847,-8.07736 -13.16233,-20.34959 -15.99705,-29.37212 -2.47016,-7.86221 -7.60427,-29.02294 -9.34103,-38.5 -0.75595,-4.125 -2.54804,-13.8 -3.98244,-21.49999 -1.43439,-7.70001 -3.31582,-17.82501 -4.18096,-22.5 -0.86513,-4.675005 -2.17111,-11.650005 -2.90217,-15.500005 -2.7543,-14.504892 -2.73748,-14.058819 -0.53607,-14.224646 1.10293,-0.08308 2.00532,0.415874 2.00532,1.108789 0,0.692915 2.6127,4.281409 5.80599,7.974432 6.48377,7.498424 16.71404,26.32972 19.92566,36.67799 1.11575,3.59511 3.88257,9.56554 6.14849,13.26761 4.21544,6.88721 4.81442,8.24312 3.20095,7.24594 -1.83053,-1.13133 -7.96044,-13.26837 -11.54023,-22.84932 -2.01374,-5.38957 -5.20923,-12.44029 -7.1011,-15.668269 -1.89187,-3.22798 -3.43976,-6.162257 -3.43976,-6.520615 0,-1.07115 -5.60962,-8.66544 -10.33477,-13.991183 l -4.41775,-4.979273 0.78172,4.479273 c 1.41691,8.118929 3.83097,21.342431 5.47297,29.979277 0.88879,4.67499 1.97556,10.75 2.41505,13.5 0.82064,5.13499 2.79097,15.17957 6.08092,30.99999 7.67337,36.89897 13.53543,50.00131 29.5244,65.99028 4.13034,4.13035 8.07493,7.50972 8.76575,7.50972 0.69081,0 2.82105,1.28093 4.73387,2.84651 1.91281,1.56558 4.50376,3.3886 5.75766,4.05114 2.84954,1.50567 13.03975,4.78648 16.85634,5.42702 1.57511,0.26435 3.53884,0.73671 4.36384,1.04967 3.51754,1.33439 42.80757,3.97485 98,6.58604 11.275,0.53343 30.175,1.45568 42,2.04945 11.825,0.59376 28.925,1.44223 38,1.88549 l 16.5,0.80592 -16.5,-0.0246 c -9.075,-0.0135 -23.7,-0.33171 -32.5,-0.70706 z m 14,-46.47978 c -0.55,-0.19378 -10,-0.85288 -21,-1.46467 -11,-0.6118 -22.925,-1.53798 -26.5,-2.05819 -3.575,-0.52021 -14.15,-1.87572 -23.5,-3.01224 -9.35,-1.13652 -19.25,-2.48453 -22,-2.99558 -2.75,-0.51105 -11.075,-1.85283 -18.5,-2.98176 -7.425,-1.12891 -15.3,-2.4686 -17.5,-2.97709 -15.51898,-3.58691 -21.38646,-5.27438 -26.11115,-7.50952 -6.10737,-2.88925 -7.35521,-4.35361 -1.63885,-1.92321 2.0625,0.8769 5.325,2.20909 7.25,2.96043 6.48192,2.52992 23.34651,6.09162 42.5,8.97577 6.05,0.91101 15.05,2.27767 20,3.03701 33.30836,5.10959 58.41651,7.44725 97.5,9.07763 8.525,0.35562 15.6875,0.81197 15.91667,1.01411 0.53073,0.46815 -25.0755,0.32983 -26.41667,-0.14269 z m -167.81676,-29.57655 c -12.96278,-7.89392 -33.22354,-25.32859 -37.01899,-31.85535 -1.03825,-1.7854 2.65441,1.33974 8.5,7.19363 8.43924,8.45122 22.03068,19.19175 33.45772,26.43967 4.09282,2.59599 -0.42985,0.96783 -4.93873,-1.77795 z m 182.81676,-6.95102 c -26.71295,-2.03872 -48.05274,-4.65821 -68.5,-8.40848 -4.125,-0.75657 -11.55,-2.10985 -16.5,-3.00727 -17.72587,-3.21368 -24.08863,-4.37125 -30,-5.45783 -3.3,-0.60659 -8.7,-1.59522 -12,-2.19696 -18.80649,-3.42927 -42.68189,-14.27559 -72,-32.70877 -15.0526,-9.46403 -20.26909,-13.50656 -24.25932,-18.79986 -1.73666,-2.303793 -5.73925,-5.665802 -8.89464,-7.471131 -3.15538,-1.805329 -8.01158,-5.547615 -10.79155,-8.31619 -2.77997,-2.768575 -6.85449,-5.810069 -9.05449,-6.758876 -3.55035,-1.531178 -3.70602,-1.731384 -1.38486,-1.780975 2.80721,-0.05998 5.48005,1.704371 13.45456,8.881412 2.78833,2.509493 7.66958,6.137715 10.84721,8.062715 3.22762,1.955286 6.96006,5.265387 8.45693,7.5 2.66069,3.972035 5.73659,6.193035 29.70948,21.452215 19.12373,12.1726 44.36298,23.62777 60.89641,27.63866 3.31115,0.80326 17.94527,3.52971 32.52027,6.05877 14.575,2.52907 29.875,5.22499 34,5.99093 14.1713,2.63138 25.51895,4.29286 36.5,5.34417 27.12404,2.59681 32.36166,3.0223 38,3.08698 3.3,0.0379 6.9,0.45558 8,0.92827 2.37033,1.01857 -5.3603,1.00321 -19,-0.0378 z"
       id="path176"
       inkscape:connector-curvature="0"
       sodipodi:nodetypes="cscsccssscccsccccsccccssccsssssscsscscsccscssscccccssssccsccssscccsssccsccssscsscsssssscscccc" />
    <path
       style="fill:#2a5ba0"
       d="m -579.53937,241.84573 c 0,-18.99766 -0.29694,-25.03648 -1.25,-25.42105 -1,-0.40351 -1,-0.52017 0,-0.58333 0.98173,-0.062 1.25,-10.48772 1.25,-48.57895 0,-38.12516 -0.26739,-48.50327 -1.25,-48.51531 -0.98457,-0.0121 -0.98844,-0.18146 -0.0182,-0.79774 0.90747,-0.57644 1.30729,-7.2201 1.51863,-25.234691 0.15778,-13.448739 0.39099,20.210241 0.51824,74.797741 0.12725,54.5875 0.006,99.25 -0.26863,99.25 -0.275,0 -0.5,-11.2125 -0.5,-24.91667 z m 234.5,7.88624 c -24.43461,-1.04221 -60.09374,-2.84083 -79,-3.98471 -52.82249,-3.19587 -66.47876,-4.36794 -69.45572,-5.96116 -1.05204,-0.56304 -2.95488,-1.03117 -4.22854,-1.0403 -2.7467,-0.0197 -12.91841,-3.7727 -17.70084,-6.53101 -5.6133,-3.23753 -19.4404,-14.91709 -23.1805,-19.58027 -6.47847,-8.07736 -13.16233,-20.34959 -15.99705,-29.37212 -2.47016,-7.86221 -7.60427,-29.02294 -9.34103,-38.5 -0.75595,-4.125 -2.54804,-13.8 -3.98244,-21.49999 -1.43439,-7.70001 -3.31582,-17.82501 -4.18096,-22.5 -0.86513,-4.675005 -2.17111,-11.650005 -2.90217,-15.500005 -2.83261,-14.917316 -2.81105,-14.386061 -0.55993,-13.79738 1.11605,0.291853 2.02918,0.848056 2.02918,1.236006 0,0.387949 2.6127,3.726926 5.80599,7.419949 6.48377,7.498424 16.71404,26.32972 19.92566,36.67799 1.11575,3.59511 3.88257,9.56554 6.14849,13.26761 4.21544,6.88721 4.81442,8.24312 3.20095,7.24594 -1.83053,-1.13133 -7.96044,-13.26837 -11.54023,-22.84932 -2.01374,-5.38957 -5.20923,-12.44029 -7.1011,-15.668269 -1.89187,-3.22798 -3.43976,-6.162257 -3.43976,-6.520615 0,-1.07115 -5.60962,-8.66544 -10.33477,-13.991183 l -4.41775,-4.979273 0.78172,4.479273 c 1.41691,8.118929 3.83097,21.342431 5.47297,29.979277 0.88879,4.67499 1.97556,10.75 2.41505,13.5 0.82064,5.13499 2.79097,15.17957 6.08092,30.99999 7.67337,36.89897 13.53543,50.00131 29.5244,65.99028 4.13034,4.13035 8.07493,7.50972 8.76575,7.50972 0.69081,0 2.82105,1.28093 4.73387,2.84651 1.91281,1.56558 4.50376,3.3886 5.75766,4.05114 2.84954,1.50567 13.03975,4.78648 16.85634,5.42702 1.57511,0.26435 3.53884,0.73671 4.36384,1.04967 3.51754,1.33439 42.80757,3.97485 98,6.58604 11.275,0.53343 30.175,1.45568 42,2.04945 11.825,0.59376 28.925,1.44223 38,1.88549 l 16.5,0.80592 -16.5,-0.0246 c -9.075,-0.0135 -23.7,-0.33171 -32.5,-0.70706 z m 14,-46.47977 c -0.55,-0.19378 -10,-0.85288 -21,-1.46467 -11,-0.6118 -22.925,-1.53799 -26.5,-2.05819 -3.575,-0.52021 -14.15,-1.87572 -23.5,-3.01224 -9.35,-1.13652 -19.25,-2.48453 -22,-2.99558 -2.75,-0.51105 -11.075,-1.85284 -18.5,-2.98176 -7.425,-1.12891 -15.3,-2.4686 -17.5,-2.97709 -15.51898,-3.58691 -21.38646,-5.27438 -26.11115,-7.50952 -6.10737,-2.88925 -7.35521,-4.35361 -1.63885,-1.92321 2.0625,0.87689 5.325,2.20908 7.25,2.96042 6.48192,2.52992 23.34651,6.09163 42.5,8.97578 6.05,0.91101 15.05,2.27767 20,3.03701 33.30836,5.10959 58.41651,7.44725 97.5,9.07763 8.525,0.35562 15.6875,0.81197 15.91667,1.0141 0.53073,0.46815 -25.0755,0.32984 -26.41667,-0.14268 z m -167.81676,-29.57656 c -12.96278,-7.89392 -33.22354,-25.32859 -37.01899,-31.85535 -1.03825,-1.7854 2.65441,1.33974 8.5,7.19363 8.43924,8.45122 22.03068,19.19175 33.45772,26.43967 4.09282,2.59599 -0.42985,0.96783 -4.93873,-1.77795 z"
       id="path174"
       inkscape:connector-curvature="0"
       sodipodi:nodetypes="cscsccssscccsccccsccccssccsssssscsscscsccscssscccccscssccsccssscccsssc" />
    <path
       style="fill:#5d6265"
       d="m -579.53937,241.84573 c 0,-18.99766 -0.29694,-25.03648 -1.25,-25.42105 -1,-0.40351 -1,-0.52017 0,-0.58333 0.98173,-0.062 1.25,-10.48772 1.25,-48.57895 0,-38.12516 -0.26739,-48.50327 -1.25,-48.51531 -0.98457,-0.0121 -0.98844,-0.18146 -0.0182,-0.79774 0.90747,-0.57644 1.30729,-7.2201 1.51863,-25.234691 0.15778,-13.448739 0.39099,20.210241 0.51824,74.797741 0.12725,54.5875 0.006,99.25 -0.26863,99.25 -0.275,0 -0.5,-11.2125 -0.5,-24.91667 z m 234.5,7.88624 c -24.43461,-1.04221 -60.09374,-2.84083 -79,-3.98471 -52.82249,-3.19587 -66.47876,-4.36794 -69.45572,-5.96116 -1.05204,-0.56304 -2.95488,-1.03117 -4.22854,-1.0403 -2.7467,-0.0197 -12.91841,-3.7727 -17.70084,-6.53101 -5.6133,-3.23753 -19.4404,-14.91709 -23.1805,-19.58027 -6.47847,-8.07736 -13.16233,-20.34959 -15.99705,-29.37212 -2.47016,-7.86221 -7.60427,-29.02294 -9.34103,-38.5 -0.75595,-4.125 -2.54804,-13.8 -3.98244,-21.49999 -1.43439,-7.70001 -3.31582,-17.82501 -4.18096,-22.5 -0.86513,-4.675005 -2.17111,-11.650005 -2.90217,-15.500005 -2.83261,-14.917316 -2.81105,-14.386061 -0.55993,-13.79738 1.11605,0.291853 2.02918,0.848056 2.02918,1.236006 0,0.387949 2.6127,3.726926 5.80599,7.419949 6.48377,7.498424 16.71404,26.32972 19.92566,36.67799 1.11575,3.59511 3.88257,9.56554 6.14849,13.26761 4.21544,6.88721 4.81442,8.24312 3.20095,7.24594 -1.83053,-1.13133 -7.96044,-13.26837 -11.54023,-22.84932 -2.01374,-5.38957 -5.20923,-12.44029 -7.1011,-15.668269 -1.89187,-3.22798 -3.43976,-6.162257 -3.43976,-6.520615 0,-1.07115 -5.60962,-8.66544 -10.33477,-13.991183 l -4.41775,-4.979273 0.78172,4.479273 c 1.41691,8.118929 3.83097,21.342431 5.47297,29.979277 0.88879,4.67499 1.97556,10.75 2.41505,13.5 0.82064,5.13499 2.79097,15.17957 6.08092,30.99999 7.67337,36.89897 13.53543,50.00131 29.5244,65.99028 4.13034,4.13035 8.07493,7.50972 8.76575,7.50972 0.69081,0 2.82105,1.28093 4.73387,2.84651 1.91281,1.56558 4.50376,3.3886 5.75766,4.05114 2.84954,1.50567 13.03975,4.78648 16.85634,5.42702 1.57511,0.26435 3.53884,0.73671 4.36384,1.04967 3.51754,1.33439 42.80757,3.97485 98,6.58604 11.275,0.53343 30.175,1.45568 42,2.04945 11.825,0.59376 28.925,1.44223 38,1.88549 l 16.5,0.80592 -16.5,-0.0246 c -9.075,-0.0135 -23.7,-0.33171 -32.5,-0.70706 z m 14,-46.4798 c -0.55,-0.19378 -10,-0.85288 -21,-1.46467 -11,-0.6118 -22.925,-1.53798 -26.5,-2.05819 -3.575,-0.52021 -14.15,-1.87572 -23.5,-3.01224 -9.35,-1.13652 -19.25,-2.48453 -22,-2.99558 -2.75,-0.51105 -11.075,-1.85283 -18.5,-2.98176 -7.425,-1.12891 -15.3,-2.4686 -17.5,-2.97709 -15.51898,-3.58691 -21.38646,-5.27438 -26.11115,-7.50952 -6.10737,-2.88925 -7.35521,-4.35361 -1.63885,-1.92321 2.0625,0.8769 5.325,2.20909 7.25,2.96043 6.48192,2.52992 23.34651,6.09162 42.5,8.97577 6.05,0.91101 15.05,2.27767 20,3.03701 33.30836,5.10959 58.41651,7.44725 97.5,9.07763 8.525,0.35562 15.6875,0.81197 15.91667,1.0141 0.53073,0.46816 -25.0755,0.32984 -26.41667,-0.14268 z m -167.81676,-29.57653 c -12.96278,-7.89392 -33.22354,-25.32859 -37.01899,-31.85535 -1.03825,-1.7854 2.65441,1.33974 8.5,7.19363 8.43924,8.45122 22.03068,19.19175 33.45772,26.43967 4.09282,2.59599 -0.42985,0.96783 -4.93873,-1.77795 z"
       id="path172"
       inkscape:connector-curvature="0"
       sodipodi:nodetypes="cscsccssscccsccccsccccssccsssssscsscscsccscssscccccssssccsccssscccsssc" />
    <path
       style="fill:#1f6e20"
       d="m -329.81631,250.15213 c -0.15294,-0.15293 -11.74069,-0.75734 -25.75056,-1.34312 -14.00988,-0.58578 -29.9725,-1.32521 -35.4725,-1.64317 -5.5,-0.31796 -16.3,-0.92211 -24,-1.34255 -10.10165,-0.55159 -11.77237,-0.79154 -6,-0.8617 4.4,-0.0535 15.425,0.30822 24.5,0.80382 9.075,0.49558 33.80533,1.61548 54.95629,2.48866 38.28161,1.58037 51.94386,2.85804 25.77957,2.41087 -7.5541,-0.12911 -13.85986,-0.35987 -14.0128,-0.51281 z m -127.22306,-6.56487 c -9.35,-0.48207 -18.125,-1.30923 -19.5,-1.83814 -2.07759,-0.79916 -1.82415,-0.87817 1.5,-0.4676 2.2,0.27172 13.20041,0.95398 24.44536,1.51615 11.24495,0.56216 20.65745,1.2342 20.91667,1.49342 0.58087,0.58087 -5.45671,0.42557 -27.36203,-0.70383 z m -31.75,-3.53058 c 1.2375,-0.23837 3.2625,-0.23837 4.5,0 1.2375,0.23834 0.225,0.43336 -2.25,0.43336 -2.475,0 -3.4875,-0.19502 -2.25,-0.43336 z m -4.9375,-0.97739 c 0.72187,-0.28887 1.58437,-0.25335 1.91667,0.0789 0.33229,0.33229 -0.25834,0.56864 -1.3125,0.52522 -1.16495,-0.048 -1.4019,-0.28494 -0.60417,-0.60416 z m -8.8125,-1.48536 c -5.68689,-1.60548 -5.61846,-2.69898 0.0765,-1.22174 5.18254,1.34433 7.55779,2.47303 4.84021,2.30002 -0.77921,-0.0496 -2.99171,-0.53483 -4.91671,-1.07828 z m -14.63281,-6.82781 c -3.36386,-2.19795 -6.72815,-4.73373 -7.4762,-5.63507 -0.74805,-0.90134 1.01914,-0.11552 3.92707,1.74628 2.90793,1.86179 6.95098,4.39017 8.98455,5.61862 2.03356,1.22845 3.01864,2.24095 2.18905,2.25 -0.82959,0.009 -4.2606,-1.78187 -7.62447,-3.97983 z m -14.88415,-11.77843 c -2.75933,-2.5989 -5.89277,-5.85029 -6.96321,-7.22529 -1.07043,-1.375 1.2997,0.63793 5.26696,4.47319 6.57483,6.35605 7.7068,7.57561 6.96321,7.5021 -0.1375,-0.0136 -2.50763,-2.1511 -5.26696,-4.75 z m -10.38265,-12.52077 c -1.26492,-2.10631 -1.24361,-2.12762 0.47833,-0.47833 0.99123,0.94941 1.58698,1.94144 1.3239,2.20452 -0.26308,0.26308 -1.07408,-0.5137 -1.80223,-1.72619 z m -2.85937,-3.95452 c -1.41911,-1.76704 -6.3679,-11.75 -5.82475,-11.75 0.24747,0 2.00314,2.925 3.90147,6.5 3.41549,6.43216 3.87079,7.675 1.92328,5.25 z m 214.25898,0.73979 c -0.55,-0.19378 -10,-0.85288 -21,-1.46467 -11,-0.6118 -22.925,-1.53798 -26.5,-2.05819 -3.575,-0.52021 -14.15,-1.87572 -23.5,-3.01224 -9.35,-1.13652 -19.25,-2.48453 -22,-2.99558 -2.75,-0.51105 -11.075,-1.85283 -18.5,-2.98176 -7.425,-1.12891 -15.3,-2.4686 -17.5,-2.97709 -15.51898,-3.58691 -21.38646,-5.27438 -26.11115,-7.50952 -6.10737,-2.88925 -7.35521,-4.35361 -1.63885,-1.92321 2.0625,0.8769 5.325,2.20909 7.25,2.96043 6.48192,2.52992 23.34651,6.09162 42.5,8.97577 6.05,0.91101 15.05,2.27767 20,3.03701 33.30836,5.10959 58.41651,7.44725 97.5,9.07763 8.525,0.35562 15.6875,0.81197 15.91667,1.01411 0.53073,0.46815 -25.0755,0.32983 -26.41667,-0.14269 z m -223.31305,-20.17607 c -1.11043,-3.74754 -2.31834,-8.16279 -2.68424,-9.81166 -1.0629,-4.78975 0.87491,-1.81734 2.17132,3.33061 0.64646,2.56704 1.6344,6.45471 2.19542,8.63927 1.71804,6.68989 0.46178,5.07843 -1.6825,-2.15822 z m 55.49629,-9.40047 c -12.96278,-7.89392 -33.22354,-25.32859 -37.01899,-31.85535 -1.03825,-1.7854 2.65441,1.33974 8.5,7.19363 8.43924,8.45122 22.03068,19.19175 33.45772,26.43967 4.09282,2.59599 -0.42985,0.96783 -4.93873,-1.77795 z m -59.56071,-5.41324 c -0.0824,-1.1 -0.38139,-3.125 -0.66439,-4.5 l -0.51456,-2.5 1.07114,2.45316 c 0.58913,1.34923 0.8881,3.37423 0.66439,4.5 -0.39626,1.99405 -0.41061,1.99526 -0.55658,0.0468 z m -2.12253,-7.72841 c 0,-0.30895 -1.54259,-8.37145 -3.42798,-17.91666 -1.8854,-9.54521 -4.35883,-22.52992 -5.49652,-28.85492 -1.13769,-6.32501 -2.51279,-13.52501 -3.05578,-16.000005 -0.54299,-2.475 -1.45972,-7.425 -2.03718,-11 -0.57746,-3.575 -1.42434,-8.4125 -1.88196,-10.75 -0.73976,-3.778681 -0.62512,-4.25 1.03369,-4.25 1.02615,0 1.86573,0.369897 1.86573,0.821994 0,0.452097 2.6127,3.843558 5.80599,7.536581 6.48377,7.498424 16.71404,26.32972 19.92566,36.67799 1.11575,3.59511 3.88257,9.56554 6.14849,13.26761 4.21544,6.88721 4.81442,8.24312 3.20095,7.24594 -1.83053,-1.13133 -7.96044,-13.26837 -11.54023,-22.84932 -2.01374,-5.38957 -5.20923,-12.44029 -7.1011,-15.668269 -1.89187,-3.22798 -3.43976,-6.162257 -3.43976,-6.520615 0,-1.129219 -5.73508,-8.811671 -10.46012,-14.011911 -4.41214,-4.855869 -4.52865,-4.913521 -4.04149,-2 2.0392,12.195716 2.71769,16.128028 2.93324,17 0.35744,1.445954 1.25454,6.214146 4.13913,22.000005 3.10726,17.00438 4.69466,25.39197 6.88089,36.3577 0.91645,4.59673 1.41474,8.60923 1.10731,8.91666 -0.30743,0.30743 -0.55896,0.30619 -0.55896,-0.003 z"
       id="path170"
       inkscape:connector-curvature="0"
       sodipodi:nodetypes="csscccsscsccsssccsccccccsccssscccsscccscssccssccssssccsccsssccscssscsssccccccccccssscssccssssssscssscc" />
    <path
       style="fill:#0d2752"
       d="m -329.81631,250.15213 c -0.15294,-0.15293 -11.74069,-0.75734 -25.75056,-1.34312 -14.00988,-0.58578 -29.9725,-1.32521 -35.4725,-1.64317 -5.5,-0.31796 -16.3,-0.92211 -24,-1.34255 -10.10165,-0.55159 -11.77237,-0.79154 -6,-0.8617 4.4,-0.0535 15.425,0.30822 24.5,0.80382 9.075,0.49558 33.80533,1.61548 54.95629,2.48866 38.28161,1.58037 51.94386,2.85804 25.77957,2.41087 -7.5541,-0.12911 -13.85986,-0.35987 -14.0128,-0.51281 z m -127.22306,-6.56487 c -9.35,-0.48207 -18.125,-1.30923 -19.5,-1.83814 -2.07759,-0.79916 -1.82415,-0.87817 1.5,-0.4676 2.2,0.27172 13.20041,0.95398 24.44536,1.51615 11.24495,0.56216 20.65745,1.2342 20.91667,1.49342 0.58087,0.58087 -5.45671,0.42557 -27.36203,-0.70383 z m -31.75,-3.53058 c 1.2375,-0.23837 3.2625,-0.23837 4.5,0 1.2375,0.23834 0.225,0.43336 -2.25,0.43336 -2.475,0 -3.4875,-0.19502 -2.25,-0.43336 z m -4.9375,-0.97739 c 0.72187,-0.28887 1.58437,-0.25335 1.91667,0.0789 0.33229,0.33229 -0.25834,0.56864 -1.3125,0.52522 -1.16495,-0.048 -1.4019,-0.28494 -0.60417,-0.60416 z m -8.8125,-1.48536 c -5.68689,-1.60548 -5.61846,-2.69898 0.0765,-1.22174 5.18254,1.34433 7.55779,2.47303 4.84021,2.30002 -0.77921,-0.0496 -2.99171,-0.53483 -4.91671,-1.07828 z m -14.63281,-6.82781 c -3.36386,-2.19795 -6.72815,-4.73373 -7.4762,-5.63507 -0.74805,-0.90134 1.01914,-0.11552 3.92707,1.74628 2.90793,1.86179 6.95098,4.39017 8.98455,5.61862 2.03356,1.22845 3.01864,2.24095 2.18905,2.25 -0.82959,0.009 -4.2606,-1.78187 -7.62447,-3.97983 z m -14.88415,-11.77843 c -2.75933,-2.5989 -5.89277,-5.85029 -6.96321,-7.22529 -1.07043,-1.375 1.2997,0.63793 5.26696,4.47319 6.57483,6.35605 7.7068,7.57561 6.96321,7.5021 -0.1375,-0.0136 -2.50763,-2.1511 -5.26696,-4.75 z m -10.38265,-12.52077 c -1.26492,-2.10631 -1.24361,-2.12762 0.47833,-0.47833 0.99123,0.94941 1.58698,1.94144 1.3239,2.20452 -0.26308,0.26308 -1.07408,-0.5137 -1.80223,-1.72619 z m -2.85937,-3.95452 c -1.41911,-1.76704 -6.3679,-11.75 -5.82475,-11.75 0.24747,0 2.00314,2.925 3.90147,6.5 3.41549,6.43216 3.87079,7.675 1.92328,5.25 z m -9.05407,-19.43628 c -1.11043,-3.74754 -2.31834,-8.16279 -2.68424,-9.81166 -1.0629,-4.78975 0.87491,-1.81734 2.17132,3.33061 0.64646,2.56704 1.6344,6.45471 2.19542,8.63927 1.71804,6.68989 0.46178,5.07843 -1.6825,-2.15822 z m -4.06442,-14.81371 c -0.0824,-1.1 -0.38139,-3.125 -0.66439,-4.5 l -0.51456,-2.5 1.07114,2.45316 c 0.58913,1.34923 0.8881,3.37423 0.66439,4.5 -0.39626,1.99405 -0.41061,1.99526 -0.55658,0.0468 z m -2.12253,-7.72841 c 0,-0.30895 -1.54259,-8.37145 -3.42798,-17.91666 -1.8854,-9.54521 -4.35883,-22.52992 -5.49652,-28.85492 -1.13769,-6.32501 -2.51212,-13.52501 -3.05428,-16.000005 -0.54216,-2.475 -1.42718,-7.2 -1.96671,-10.5 -0.53953,-3.3 -1.2862,-7.8 -1.65928,-10 -0.37307,-2.2 -0.37551,-3.723388 -0.005,-3.385307 0.7397,0.675707 1.0961,2.23984 2.70822,11.885307 0.59752,3.575 1.19764,6.95 1.3336,7.5 0.35743,1.445954 1.25453,6.214146 4.13913,22.000005 3.10726,17.00438 4.69465,25.39197 6.88088,36.3577 0.91645,4.59673 1.41474,8.60923 1.10732,8.91666 -0.30745,0.30743 -0.55898,0.30619 -0.55898,-0.003 z"
       id="path168"
       inkscape:connector-curvature="0"
       sodipodi:nodetypes="csscccsscsccsssccsccccccsccssscccsscccscssccsscscssscccccccccsssccscssccc" />
  </g>
  <text
     xml:space="preserve"
     style="font-style:normal;font-weight:normal;font-size:10.66666698px;line-height:1.25;font-family:sans-serif;letter-spacing:0px;word-spacing:0px;fill:#ffffff;fill-opacity:1;stroke:none"
     x="31.632814"
     y="267.43686"
     id="text216"><tspan
       sodipodi:role="line"
       id="tspan214"
       x="31.632814"
       y="267.43686">0</tspan></text>
  <text
     xml:space="preserve"
     style="font-style:normal;font-weight:normal;font-size:10.66666698px;line-height:1.25;font-family:sans-serif;letter-spacing:0px;word-spacing:0px;fill:#ffffff;fill-opacity:1;stroke:none"
     x="25.580751"
     y="217.93684"
     id="text220"><tspan
       sodipodi:role="line"
       id="tspan218"
       x="25.580751"
       y="217.93684">25</tspan></text>
  <text
     xml:space="preserve"
     style="font-style:normal;font-weight:normal;font-size:10.66666698px;line-height:1.25;font-family:sans-serif;letter-spacing:0px;word-spacing:0px;fill:#ffffff;fill-opacity:1;stroke:none"
     x="25.210939"
     y="168.93686"
     id="text224"><tspan
       sodipodi:role="line"
       id="tspan222"
       x="25.210939"
       y="168.93686">50</tspan></text>
  <text
     xml:space="preserve"
     style="font-style:normal;font-weight:normal;font-size:10.66666698px;line-height:1.25;font-family:sans-serif;letter-spacing:0px;word-spacing:0px;fill:#ffffff;fill-opacity:1;stroke:none"
     x="25.643251"
     y="121.93685"
     id="text228"><tspan
       sodipodi:role="line"
       id="tspan226"
       x="25.643251"
       y="121.93685">75</tspan></text>
  <text
     xml:space="preserve"
     style="font-style:normal;font-weight:normal;font-size:10.66666698px;line-height:1.25;font-family:sans-serif;letter-spacing:0px;word-spacing:0px;fill:#ffffff;fill-opacity:1;stroke:none"
     x="23.132814"
     y="68.936852"
     id="text232"><tspan
       sodipodi:role="line"
       id="tspan230"
       x="23.132814"
       y="68.936852">100</tspan></text>
  <text
     xml:space="preserve"
     style="font-style:normal;font-weight:normal;font-size:10.66666698px;line-height:1.25;font-family:sans-serif;letter-spacing:0px;word-spacing:0px;fill:#ffffff;fill-opacity:1;stroke:none"
     x="48.382812"
     y="281.43686"
     id="text236"><tspan
       sodipodi:role="line"
       id="tspan234"
       x="48.382812"
       y="281.43686">1</tspan></text>
  <text
     xml:space="preserve"
     style="font-style:normal;font-weight:normal;font-size:10.66666698px;line-height:1.25;font-family:sans-serif;letter-spacing:0px;word-spacing:0px;fill:#ffffff;fill-opacity:1;stroke:none"
     x="124.88282"
     y="281.30145"
     id="text240"><tspan
       sodipodi:role="line"
       id="tspan238"
       x="124.88282"
       y="281.30145">5</tspan></text>
  <text
     xml:space="preserve"
     style="font-style:normal;font-weight:normal;font-size:10.66666698px;line-height:1.25;font-family:sans-serif;letter-spacing:0px;word-spacing:0px;fill:#ffffff;fill-opacity:1;stroke:none"
     x="216.13281"
     y="281.30145"
     id="text244"><tspan
       sodipodi:role="line"
       id="tspan242"
       x="216.13281"
       y="281.30145">10</tspan></text>
  <text
     xml:space="preserve"
     style="font-style:normal;font-weight:normal;font-size:10.66666698px;line-height:1.25;font-family:sans-serif;letter-spacing:0px;word-spacing:0px;fill:#ffffff;fill-opacity:1;stroke:none"
     x="313.38281"
     y="281.30145"
     id="text248"><tspan
       sodipodi:role="line"
       id="tspan246"
       x="313.38281"
       y="281.30145">15</tspan></text>
  <text
     xml:space="preserve"
     style="font-style:normal;font-weight:normal;font-size:18.66666603px;line-height:1.25;font-family:sans-serif;letter-spacing:0px;word-spacing:0px;fill:#ffffff;fill-opacity:1;stroke:none"
     x="180.13281"
     y="301.93686"
     id="text252"><tspan
       sodipodi:role="line"
       id="tspan250"
       x="180.13281"
       y="301.93686"
       style="font-size:14.66666698px;fill:#ffffff"></tspan></text>
  <text
     xml:space="preserve"
     style="font-style:normal;font-weight:normal;font-size:14.66666698px;line-height:1.25;font-family:sans-serif;letter-spacing:0px;word-spacing:0px;fill:#ffffff;fill-opacity:1;stroke:none"
     x="289.84375"
     y="87.936852"
     id="text260"><tspan
       sodipodi:role="line"
       id="tspan258"
       x="289.84375"
       y="87.936852">1</tspan></text>
  <text
     xml:space="preserve"
     style="font-style:normal;font-weight:normal;font-size:14.66666698px;line-height:1.25;font-family:sans-serif;letter-spacing:0px;word-spacing:0px;fill:#ffffff;fill-opacity:1;stroke:none"
     x="291.84375"
     y="149.93686"
     id="text264"><tspan
       sodipodi:role="line"
       id="tspan262"
       x="291.84375"
       y="149.93686">2</tspan></text>
  <text
     xml:space="preserve"
     style="font-style:normal;font-weight:normal;font-size:14.66666698px;line-height:1.25;font-family:sans-serif;letter-spacing:0px;word-spacing:0px;fill:#ffffff;fill-opacity:1;stroke:none"
     x="292.84375"
     y="193.93684"
     id="text268"><tspan
       sodipodi:role="line"
       id="tspan266"
       x="292.84375"
       y="193.93684">3</tspan></text>
  <text
     xml:space="preserve"
     style="font-style:normal;font-weight:normal;font-size:14.66666698px;line-height:1.25;font-family:sans-serif;letter-spacing:0px;word-spacing:0px;fill:#ffffff;fill-opacity:1;stroke:none"
     x="293.84375"
     y="237.93684"
     id="text272"><tspan
       sodipodi:role="line"
       id="tspan270"
       x="293.84375"
       y="237.93684">4</tspan></text>
  <text
     xml:space="preserve"
     style="font-style:normal;font-variant:normal;font-weight:normal;font-stretch:normal;font-size:14.66666698px;line-height:1.25;font-family:sans-serif;-inkscape-font-specification:'sans-serif, Normal';font-variant-ligatures:normal;font-variant-caps:normal;font-variant-numeric:normal;font-feature-settings:normal;text-align:start;letter-spacing:0px;word-spacing:0px;writing-mode:lr-tb;text-anchor:start;fill:#ffffff;fill-opacity:1;stroke:none"
     x="-0.10026042"
     y="160.90625"
     id="text51"><tspan
       sodipodi:role="line"
       id="tspan50"
       x="-0.10026042"
       y="160.90625"></tspan><tspan
       sodipodi:role="line"
       id="tspan52"
       x="-0.10026042"
       y="179.60896"></tspan><tspan
       sodipodi:role="line"
       id="tspan54"
       x="-0.10026042"
       y="198.31169"></tspan></text>
  <g
     id="g1189"
     transform="translate(-26.10026,95.697266)">
    <text
       id="text55"
       y="-77.791016"
       x="30"
       style="font-style:normal;font-weight:normal;font-size:37.33333206px;line-height:1.25;font-family:sans-serif;letter-spacing:0px;word-spacing:0px;fill:#ffff00;fill-opacity:1;stroke:none;"
       xml:space="preserve"><tspan
         style="font-size:21.33333397px;fill:#ffff00;"
         y="-77.791016"
         x="30"
         id="tspan53"
         sodipodi:role="line">1595%</tspan></text>
    <path
       inkscape:connector-curvature="0"
       id="path61"
       d="m 27,-65.791016 h 227 l -105,49"
       style="fill:none;stroke:#0000ff;stroke-width:1px;stroke-linecap:butt;stroke-linejoin:miter;stroke-opacity:1;marker-end:url(#DotL)" />
    <animate
       id="anm3"
       attributeName="visibility"
       from="visible"
       to="hidden"
       dur="5s"
       repeatCount="indefinite" />
  </g>
  <g
     id="g1206"
     transform="translate(-7.4065604,44.3218)">
    <text
       id="text59"
       y="309.20898"
       x="99"
       style="font-style:normal;font-weight:normal;font-size:37.33333206px;line-height:1.25;font-family:sans-serif;letter-spacing:0px;word-spacing:0px;fill:#ffff00;fill-opacity:1;stroke:none;"
       xml:space="preserve"><tspan
         style="font-size:21.33333397px;fill:#ffff00;"
         y="309.20898"
         x="99"
         id="tspan57"
         sodipodi:role="line">4510%</tspan></text>
    <path
       inkscape:connector-curvature="0"
       id="path63"
       d="M 300,317.20898 H 86 l 45,-123"
       style="fill:none;stroke:#0000ff;stroke-width:1px;stroke-linecap:butt;stroke-linejoin:miter;stroke-opacity:1;marker-end:url(#marker1154)" />
    <animate
       id="anm4"
       attributeName="visibility"
       from="hidden"
       to="visible"
       dur="5s"
       repeatCount="indefinite" />
  </g>
</svg>
